<svg xmlns="http://www.w3.org/2000/svg" width="140.575" height="117.868" viewBox="0 0 140.575 117.868">
  <g id="Reaction_1" data-name="Reaction #1" transform="translate(-626.974 -159.035)">
    <path id="Path_141" data-name="Path 141" d="M8.856,0V-2.856H1.2v-2.7L6.732-17.28h3.3L4.5-5.556H8.856v-4.5h2.928v4.5H13.4v2.7h-1.62V0ZM15.8-.024v-2.52L23.2-9.132a5.007,5.007,0,0,0,1.2-1.452,2.989,2.989,0,0,0,.336-1.32,3.153,3.153,0,0,0-.372-1.542,2.816,2.816,0,0,0-1.026-1.074,2.85,2.85,0,0,0-1.506-.4,3.03,3.03,0,0,0-1.59.414,2.945,2.945,0,0,0-1.074,1.1,2.788,2.788,0,0,0-.36,1.476H15.828A5.721,5.721,0,0,1,16.6-14.94a5.29,5.29,0,0,1,2.136-1.992,6.734,6.734,0,0,1,3.15-.708,5.993,5.993,0,0,1,2.976.738,5.41,5.41,0,0,1,2.076,2.04,5.853,5.853,0,0,1,.756,2.994,5.613,5.613,0,0,1-.336,2.076,4.917,4.917,0,0,1-1,1.548q-.666.708-1.65,1.572L19.464-2.028l-.264-.72h8.5V-.024ZM33.576,0V-14.124l-3.24,1.98v-3.192l3.24-1.944h2.952V0Zm7.488,0,.024-17.28h2.928V-6.72l4.74-6.24h3.612L47.34-6.48,52.8,0H48.972L44.016-6.24V0Z" transform="matrix(0.951, -0.309, 0.309, 0.951, 684, 222)" fill="#fff"/>
    <path id="Path_43" data-name="Path 43" d="M4005.089,178.482h0a5.084,5.084,0,0,1,1.792.653c2.374,1.116,7.313,3.437,17.916,4.968a151.167,151.167,0,0,0,21.49,1.232c5.517,0,11.258-.15,16.81-.3,5.461-.143,11.108-.291,16.447-.291,12.948,0,21.713.906,28.42,2.936a28.9,28.9,0,0,1,6.8,2.807,5.516,5.516,0,0,1,2.677,3.049,4.517,4.517,0,0,1-.883,3.673,28.46,28.46,0,0,1-3.032,3.6c-2.439,2.612-5.2,5.572-5.2,8.945a60.474,60.474,0,0,0,.491,7.971,22.2,22.2,0,0,1-.5,9.322c-.376,1.652-.6,2.983-.792,4.158a13.184,13.184,0,0,1-1.434,4.943c-.848,1.393-2.268,2.645-4.9,4.32-4.975,3.167-7.394,3.257-12.694,3.456-1.881.071-4.221.158-7.179.411-1.176.1-2.374.151-3.561.151a62.993,62.993,0,0,1-8.784-.741,46.7,46.7,0,0,0-6.17-.57,15.607,15.607,0,0,0-6.051,1.125c-1.848.748-2.96,2.5-3.4,5.361a37.51,37.51,0,0,0,0,7.972c.219,3.054.3,4.681-.351,5.383a1.076,1.076,0,0,1-1.146.272c-1.642-.484-2.132-3.7-2.812-8.148-.848-5.552-1.9-12.462-5.576-14.667a9.943,9.943,0,0,0-5.263-1.738,18.444,18.444,0,0,0-3.94.6,42.886,42.886,0,0,1-9.515,1.2,39.25,39.25,0,0,0-9.428,1.384,24.244,24.244,0,0,1-5.857.945,16.349,16.349,0,0,1-8.059-2.39c-1.7-.934-2.883-2.709-3.509-5.275a29.113,29.113,0,0,1-.459-8.611c.426-6.537,2.059-14.394,3.639-21.991,1.278-6.148,2.486-11.956,2.925-16.494a50.99,50.99,0,0,0,.211-7.12c-.043-1.309-.063-1.906.288-2.268A.813.813,0,0,1,4005.089,178.482Zm41.2,7.853a152.1,152.1,0,0,1-21.632-1.242c-10.751-1.553-15.781-3.917-18.2-5.053a10.527,10.527,0,0,0-1.258-.54,11.453,11.453,0,0,0,0,1.461,51.85,51.85,0,0,1-.215,7.249c-.444,4.592-1.657,10.425-2.941,16.6-1.573,7.564-3.2,15.385-3.62,21.853-.468,7.18.661,11.414,3.451,12.945a15.414,15.414,0,0,0,7.577,2.267,23.515,23.515,0,0,0,5.62-.916,40.1,40.1,0,0,1,9.65-1.412,42.013,42.013,0,0,0,9.314-1.181,19.415,19.415,0,0,1,4.156-.628,10.857,10.857,0,0,1,5.778,1.88c4.077,2.447,5.171,9.614,6.05,15.373.3,1.967.584,3.825.948,5.181.437,1.631.871,2.074,1.159,2.159a.246.246,0,0,0,.119.016s.218-.133.25-1.281c.025-.873-.057-2.026-.153-3.361a38.257,38.257,0,0,1,.014-8.2,10.158,10.158,0,0,1,1.211-3.683,5.709,5.709,0,0,1,2.8-2.453,16.575,16.575,0,0,1,6.426-1.2,47.419,47.419,0,0,1,6.3.579,62.175,62.175,0,0,0,8.649.732c1.158,0,2.328-.05,3.476-.148,2.981-.255,5.335-.343,7.226-.414,5.268-.2,7.448-.279,12.195-3.3,4.989-3.175,5.215-4.538,5.884-8.582.2-1.189.42-2.536.8-4.217a21.189,21.189,0,0,0,.485-8.982,61.283,61.283,0,0,1-.5-8.089c0-3.767,2.908-6.88,5.474-9.627,2.242-2.4,4.179-4.474,3.68-6.33-.491-1.827-3.369-3.514-8.8-5.158-6.609-2-15.285-2.893-28.131-2.893-5.326,0-10.966.148-16.421.291C4057.565,186.184,4051.818,186.335,4046.287,186.335Z" transform="matrix(0.951, -0.309, 0.309, 0.951, -3229.854, 1261.681)" fill="#fff"/>
    <path id="Icon_material-photo" data-name="Icon material-photo" d="M31.5,28.5V7.5a3.009,3.009,0,0,0-3-3H7.5a3.009,3.009,0,0,0-3,3v21a3.009,3.009,0,0,0,3,3h21A3.009,3.009,0,0,0,31.5,28.5ZM12.75,20.25l3.75,4.515L21.75,18l6.75,9H7.5Z" transform="translate(640.429 209.742) rotate(-20)" fill="#fff"/>
  </g>
</svg>
