<svg xmlns="http://www.w3.org/2000/svg" width="418.068" height="314.825" viewBox="0 0 418.068 314.825">
  <g id="Planet_Skirt" data-name="Planet Skirt" transform="translate(-358.472 -688.896) rotate(22)">
    <path id="Контур_35" data-name="Контур 35" d="M4145.607,478.462c-21,14.916-22.308,17.167-47.188,43.711s-19.386,57.455,5.3,86.348,51.392,20.874,96.9,40.423,41.656,19.855,87.284,11.538,61.857-9.082,98.735-40.03,69.583-100.686,69.583-100.686" transform="translate(-3426)" fill="none" stroke="#fff" stroke-width="1"/>
    <path id="Контур_36" data-name="Контур 36" d="M4135.974,484.231c-20.1,14.388-14.44,10.78-38.25,36.385s-18.552,55.421,5.069,83.291,49.181,20.135,92.73,38.992,39.864,19.152,83.529,11.13,55.839-13.368,91.13-43.22,55.32-90.352,55.32-90.352" transform="translate(-3412.622)" fill="none" stroke="#fff" stroke-width="1"/>
    <path id="Контур_37" data-name="Контур 37" d="M4126.59,485.247c-17.606,13.366-9.925,8.57-30.783,32.356s-16.252,51.485,4.44,77.376,43.083,18.7,81.235,36.223,34.922,17.792,73.173,10.339,50.679-9.8,81.595-37.536,53.743-89.978,53.743-89.978" transform="translate(-3399.263 6.421)" fill="none" stroke="#fff" stroke-width="1"/>
    <path id="Контур_38" data-name="Контур 38" d="M4115.1,493.41c-15.444,14.59-2.361-.073-20.836,22.382s-14.4,48.6,3.933,73.046,38.161,17.658,71.953,34.2,30.932,16.8,64.813,9.761,44.888-9.255,72.271-35.435,49.923-89.239,49.923-89.239" transform="translate(-3380.137 10.924)" fill="none" stroke="#fff" stroke-width="1"/>
  </g>
</svg>
