<svg xmlns="http://www.w3.org/2000/svg" width="79.758" height="50.747" viewBox="0 0 79.758 50.747">
  <g id="Reaction_2" data-name="Reaction #2" transform="translate(-863.671 -163.28)">
    <path id="Path_44" data-name="Path 44" d="M4002.521,178.482h0a3.673,3.673,0,0,1,1.211.377,41.586,41.586,0,0,0,11.554,2.778,112.435,112.435,0,0,0,13.885.69c3.567,0,7.28-.084,10.871-.166,3.533-.08,7.187-.163,10.642-.163,8.387,0,14.067.509,18.417,1.652,4,1.051,5.941,2.138,6.289,3.526.365,1.456-1.086,2.8-2.622,4.229s-3.294,3.058-3.294,4.843a29.234,29.234,0,0,0,.315,4.437,11.062,11.062,0,0,1-.332,5.329c-.241.918-.383,1.661-.508,2.316a6.86,6.86,0,0,1-.967,2.866,9.162,9.162,0,0,1-3.234,2.483c-3.25,1.794-4.824,1.845-8.275,1.957-1.215.04-2.728.089-4.638.23-.764.057-1.542.085-2.313.085a46.945,46.945,0,0,1-5.7-.417,34.6,34.6,0,0,0-3.977-.319,11.34,11.34,0,0,0-3.869.624,3.284,3.284,0,0,0-2.072,2.841,18.078,18.078,0,0,0,0,4.407c.132,1.6.219,2.657-.25,3.167a.9.9,0,0,1-.927.243c-1.177-.3-1.5-2.164-1.959-4.742-.539-3.065-1.211-6.879-3.5-8.07a7,7,0,0,0-3.34-.959,13.544,13.544,0,0,0-2.524.337,31.872,31.872,0,0,1-6.178.678,28.894,28.894,0,0,0-6.073.774,17.994,17.994,0,0,1-3.815.533,11.93,11.93,0,0,1-5.271-1.355,4.574,4.574,0,0,1-2.378-3.1,14.45,14.45,0,0,1-.306-4.919,84.676,84.676,0,0,1,2.36-12.377,84.117,84.117,0,0,0,1.887-9.223,24.236,24.236,0,0,0,.135-3.956c-.029-.763-.043-1.146.225-1.425A.711.711,0,0,1,4002.521,178.482Zm26.65,4.844a113.388,113.388,0,0,1-14.009-.7,42.513,42.513,0,0,1-11.807-2.844c-.217-.088-.438-.178-.6-.237,0,.15.007.344.014.535a25.466,25.466,0,0,1-.141,4.1,84.64,84.64,0,0,1-1.908,9.346,84.029,84.029,0,0,0-2.335,12.218c-.294,3.918.4,6.22,2.116,7.037a10.99,10.99,0,0,0,4.842,1.258,17.262,17.262,0,0,0,3.608-.511,29.747,29.747,0,0,1,6.267-.8,30.993,30.993,0,0,0,6-.66,14.45,14.45,0,0,1,2.713-.355,7.921,7.921,0,0,1,3.8,1.071c2.726,1.419,3.445,5.5,4.022,8.784a26.284,26.284,0,0,0,.605,2.876c.249.805.474,1.009.584,1.059a2.342,2.342,0,0,0,.065-.672c0-.454-.049-1.047-.1-1.675-.234-2.83-.587-7.106,2.737-8.273a12.309,12.309,0,0,1,4.2-.68,35.323,35.323,0,0,1,4.094.326,45.463,45.463,0,0,0,5.58.41c.746,0,1.5-.028,2.239-.083,1.931-.143,3.455-.193,4.679-.233,3.385-.11,4.785-.156,7.824-1.833,3.144-1.735,3.273-2.414,3.7-4.662.122-.638.273-1.431.523-2.383a10.145,10.145,0,0,0,.308-4.939,30.108,30.108,0,0,1-.324-4.573c0-2.221,1.92-4,3.613-5.576,1.313-1.219,2.554-2.371,2.333-3.253-.239-.951-2.114-1.893-5.573-2.8-4.263-1.12-9.865-1.619-18.163-1.619-3.443,0-7.091.083-10.619.163C4036.468,183.242,4032.75,183.327,4029.171,183.327Z" transform="matrix(0.999, 0.035, -0.035, 0.999, -3123.305, -154.598)" fill="#fff"/>
    <path id="Path_144" data-name="Path 144" d="M5.742.27a4.4,4.4,0,0,1-2.282-.6,4.361,4.361,0,0,1-1.607-1.66A4.911,4.911,0,0,1,1.26-4.428V-8.37a5.31,5.31,0,0,1,.59-2.565,4.142,4.142,0,0,1,1.656-1.683,5.012,5.012,0,0,1,2.48-.594,5.294,5.294,0,0,1,1.863.329,4.132,4.132,0,0,1,1.566,1.048L7.848-10.314a2.464,2.464,0,0,0-.832-.639,2.365,2.365,0,0,0-1.03-.234,2.438,2.438,0,0,0-1.323.356,2.466,2.466,0,0,0-.878.931,2.559,2.559,0,0,0-.311,1.233v2.151l-.4-.432A3.947,3.947,0,0,1,4.419-7.961a3.837,3.837,0,0,1,1.638-.364,4.163,4.163,0,0,1,2.16.553A4.013,4.013,0,0,1,9.693-6.26a4.369,4.369,0,0,1,.54,2.182,4.064,4.064,0,0,1-.616,2.2A4.567,4.567,0,0,1,7.983-.31,4.441,4.441,0,0,1,5.742.27Zm0-2.079a2.262,2.262,0,0,0,1.152-.3,2.293,2.293,0,0,0,.833-.819,2.188,2.188,0,0,0,.31-1.148,2.236,2.236,0,0,0-.306-1.152,2.33,2.33,0,0,0-.824-.833A2.188,2.188,0,0,0,5.76-6.372a2.211,2.211,0,0,0-1.152.311,2.318,2.318,0,0,0-.828.833,2.236,2.236,0,0,0-.306,1.152,2.2,2.2,0,0,0,.3,1.13,2.3,2.3,0,0,0,.819.828A2.188,2.188,0,0,0,5.742-1.809ZM24.12,0V-5.9a2.284,2.284,0,0,0-.5-1.562,1.7,1.7,0,0,0-1.341-.562,1.841,1.841,0,0,0-.936.239,1.693,1.693,0,0,0-.657.7,2.345,2.345,0,0,0-.243,1.1l-.963-.567A3.318,3.318,0,0,1,19.94-8.33a3.265,3.265,0,0,1,1.255-1.2,3.623,3.623,0,0,1,1.764-.432A3.131,3.131,0,0,1,25.43-9a3.686,3.686,0,0,1,.859,2.542V0ZM12.429,0V-9.72h1.917V-6.7h.27V0Zm5.859,0V-5.877a2.33,2.33,0,0,0-.495-1.584,1.7,1.7,0,0,0-1.35-.567,1.682,1.682,0,0,0-1.328.567,2.151,2.151,0,0,0-.5,1.476l-.972-.648a3.166,3.166,0,0,1,.468-1.7,3.356,3.356,0,0,1,1.264-1.193,3.655,3.655,0,0,1,1.786-.436,3.349,3.349,0,0,1,1.823.464,2.872,2.872,0,0,1,1.1,1.26,4.267,4.267,0,0,1,.365,1.8V0Z" transform="translate(898.819 190.417) rotate(9)" fill="#fff"/>
    <path id="Path_47" data-name="Path 47" d="M8.92,16.266c-4.8-3.248-7.312-6.2-8.344-8.675C-2.187.964,5.707-2.205,8.92,1.707c3.213-3.912,11.107-.743,8.344,5.884C16.232,10.064,13.717,13.019,8.92,16.266Z" transform="translate(879.063 173.438) rotate(9)" fill="#fff"/>
  </g>
</svg>
