<svg xmlns="http://www.w3.org/2000/svg" width="167.172" height="167.992" viewBox="0 0 167.172 167.992">
  <g id="Сгруппировать_167" data-name="Сгруппировать 167" transform="translate(-602.04 -198.89)">
    <path id="Контур_108" data-name="Контур 108" d="M1058.175,510.071l25.634,9.352-3.864,10.592q-.136.374-.377.952a8.868,8.868,0,0,1-.512,1.044,8.207,8.207,0,0,1-2.818,3.137,7.314,7.314,0,0,1-3.661,1.105,10.833,10.833,0,0,1-4.11-.7,10.67,10.67,0,0,1-3.577-2.112,7.388,7.388,0,0,1-2.086-3.212,8.185,8.185,0,0,1-.143-4.2q.11-.524.292-1.134t.312-.966l2.3-6.3-8.954-3.267Zm11.394,9.018-2.234,6.124q-.13.356-.256.814a4.461,4.461,0,0,0-.156.871,3.483,3.483,0,0,0,.33,2.026,4.21,4.21,0,0,0,1.212,1.431,6.167,6.167,0,0,0,1.579.869,6.255,6.255,0,0,0,1.776.356,4.2,4.2,0,0,0,1.858-.311,3.483,3.483,0,0,0,1.557-1.338,4.072,4.072,0,0,0,.432-.77q.189-.436.319-.791l2.234-6.124Z" transform="translate(-316.751 -216.836)" fill="#fff"/>
    <path id="Контур_109" data-name="Контур 109" d="M1001.369,577.221l19.774,18.8L1018,599.333l-8.321-7.913-8.906,9.365,8.322,7.913-3.134,3.3-19.774-18.8,3.134-3.3,8.349,7.94,8.906-9.365-8.349-7.939Z" transform="translate(-267.677 -263.627)" fill="#fff"/>
    <path id="Контур_110" data-name="Контур 110" d="M933.092,632.3l2.445,28.506-6.185,2.549L911,641.41l4.345-1.791,16.547,19.66-.946.39-2.2-25.574Zm-2.179,7.292,1.625,3.942L919.292,649l-1.625-3.942Z" transform="translate(-215.288 -302.01)" fill="#fff"/>
    <path id="Контур_111" data-name="Контур 111" d="M851.889,659.377a13.387,13.387,0,0,1,5.407.955,10.062,10.062,0,0,1,3.989,2.92,9.653,9.653,0,0,1,2.036,4.581l-4.725.8a6.267,6.267,0,0,0-2.553-3.711,7.365,7.365,0,0,0-4.37-1.256,8.2,8.2,0,0,0-2.74.5,5.1,5.1,0,0,0-2.072,1.36,3.038,3.038,0,0,0-.77,2.154,2.865,2.865,0,0,0,.206,1.048,2.579,2.579,0,0,0,.573.853,3.912,3.912,0,0,0,.959.676,7.111,7.111,0,0,0,1.345.518l7.082,1.97a17.952,17.952,0,0,1,1.973.679,7.857,7.857,0,0,1,2.009,1.2A6.022,6.022,0,0,1,861.8,676.6a6.855,6.855,0,0,1,.646,3.012,7.193,7.193,0,0,1-1.264,4.446,8.051,8.051,0,0,1-3.557,2.739,13.386,13.386,0,0,1-5.016.953,12.868,12.868,0,0,1-5.017-.876,9.592,9.592,0,0,1-3.719-2.66,10.451,10.451,0,0,1-2.154-4.267l4.893-.932a5.446,5.446,0,0,0,1.205,2.435,5.625,5.625,0,0,0,2.128,1.51,7.16,7.16,0,0,0,2.652.526,7.02,7.02,0,0,0,2.523-.449,4.556,4.556,0,0,0,1.856-1.252,2.7,2.7,0,0,0,.68-1.869,2.275,2.275,0,0,0-.633-1.629,4.315,4.315,0,0,0-1.523-.98,14.767,14.767,0,0,0-1.838-.586l-4.91-1.285q-1.008-.25-2.266-.684a10.247,10.247,0,0,1-2.427-1.23,6.457,6.457,0,0,1-1.939-2.11,6.8,6.8,0,0,1-.8-3.361,7.6,7.6,0,0,1,.82-3.737,7.884,7.884,0,0,1,2.335-2.7,10.832,10.832,0,0,1,3.394-1.647A15.076,15.076,0,0,1,851.889,659.377Z" transform="translate(-166.734 -320.873)" fill="#fff"/>
    <path id="Контур_112" data-name="Контур 112" d="M774.5,643.9l-9.951,25.407-16.409-6.427,1.562-3.987,12.156,4.761,2.453-6.264-10.039-3.932,1.562-3.987,10.04,3.932,2.813-7.181-12.157-4.761,1.562-3.988Z" transform="translate(-101.807 -305.613)" fill="#fff"/>
    <path id="Контур_113" data-name="Контур 113" d="M685.515,606.2l-20.727,17.746-7.333-8.565q-.259-.3-.644-.8a9.016,9.016,0,0,1-.658-.958,8.218,8.218,0,0,1-1.35-4,7.32,7.32,0,0,1,.834-3.732,10.831,10.831,0,0,1,2.63-3.237,10.671,10.671,0,0,1,3.6-2.08,7.382,7.382,0,0,1,3.822-.241,8.186,8.186,0,0,1,3.727,1.935q.4.354.844.811t.688.745l4.363,5.1,7.24-6.2Zm-13.449,5.5-4.239-4.952q-.246-.287-.583-.623a4.46,4.46,0,0,0-.682-.564,3.487,3.487,0,0,0-1.927-.707,4.208,4.208,0,0,0-1.841.354,6.151,6.151,0,0,0-1.532.95,6.239,6.239,0,0,0-1.181,1.373,4.2,4.2,0,0,0-.642,1.771,3.491,3.491,0,0,0,.4,2.013,4.044,4.044,0,0,0,.459.754q.286.379.533.666l4.239,4.952Z" transform="translate(-36.761 -279.634)" fill="#fff"/>
    <path id="Контур_114" data-name="Контур 114" d="M635.263,516.424l-26.093,7.983-1.336-4.367,10.981-3.36-3.781-12.358-10.981,3.36-1.33-4.349,26.093-7.983,1.33,4.349-11.017,3.37,3.781,12.358,11.016-3.371Z" transform="translate(-0.476 -206.579)" fill="#fff"/>
    <path id="Контур_115" data-name="Контур 115" d="M628.08,437.62l-26.04-11.852.812-6.64,28.129-5.226-.571,4.665-25.249,4.777.124-1.016,23.365,10.628Zm-5.286-5.477-4.232-.518,1.739-14.219,4.232.518Z" transform="translate(0 -149.824)" fill="#fff"/>
    <path id="Контур_116" data-name="Контур 116" d="M655.849,340.015A13.391,13.391,0,0,1,652.3,344.2a10.063,10.063,0,0,1-4.534,1.973,9.653,9.653,0,0,1-4.983-.552l1.695-4.482a6.263,6.263,0,0,0,4.491-.333,7.367,7.367,0,0,0,3.288-3.14,8.2,8.2,0,0,0,.95-2.618,5.106,5.106,0,0,0-.13-2.475,3.039,3.039,0,0,0-1.472-1.751,2.856,2.856,0,0,0-1.01-.35,2.573,2.573,0,0,0-1.025.065,3.915,3.915,0,0,0-1.068.487,7.08,7.08,0,0,0-1.125.9l-5.272,5.122a17.981,17.981,0,0,1-1.581,1.361,7.866,7.866,0,0,1-2.049,1.13,6.026,6.026,0,0,1-2.5.353,6.849,6.849,0,0,1-2.927-.961,7.192,7.192,0,0,1-3.2-3.333,8.051,8.051,0,0,1-.572-4.452,13.4,13.4,0,0,1,1.706-4.812,12.875,12.875,0,0,1,3.286-3.891,9.59,9.59,0,0,1,4.172-1.871,10.46,10.46,0,0,1,4.771.292l-1.662,4.7a5.446,5.446,0,0,0-2.71-.187,5.627,5.627,0,0,0-2.377,1.076,7.162,7.162,0,0,0-1.792,2.025,7.033,7.033,0,0,0-.885,2.4,4.554,4.554,0,0,0,.146,2.234,2.7,2.7,0,0,0,1.27,1.53,2.274,2.274,0,0,0,1.726.275,4.313,4.313,0,0,0,1.614-.821,14.716,14.716,0,0,0,1.433-1.292l3.586-3.592q.723-.745,1.733-1.613a10.264,10.264,0,0,1,2.286-1.475,6.451,6.451,0,0,1,2.8-.61,6.8,6.8,0,0,1,3.307,1,7.6,7.6,0,0,1,2.814,2.593,7.877,7.877,0,0,1,1.155,3.378,10.839,10.839,0,0,1-.289,3.761A15.078,15.078,0,0,1,655.849,340.015Z" transform="translate(-18.912 -84.681)" fill="#fff"/>
    <path id="Контур_117" data-name="Контур 117" d="M698.339,275.455l-17.262-21.133,13.648-11.148,2.709,3.317-10.111,8.259,4.255,5.21,8.35-6.821,2.709,3.317-8.351,6.821,4.879,5.973,10.112-8.259,2.709,3.317Z" transform="translate(-55.074 -30.858)" fill="#fff"/>
    <path id="Контур_118" data-name="Контур 118" d="M798.317,232.579,793.072,205.8l11.064-2.167q.391-.076,1.01-.169a8.841,8.841,0,0,1,1.158-.1,8.211,8.211,0,0,1,4.142.791,7.31,7.31,0,0,1,2.838,2.562,10.842,10.842,0,0,1,1.523,3.882,10.659,10.659,0,0,1,.041,4.153,7.385,7.385,0,0,1-1.671,3.446,8.192,8.192,0,0,1-3.519,2.292q-.506.176-1.122.335t-.987.232l-6.583,1.289L802.8,231.7Zm1.83-14.416,6.4-1.253q.372-.073.829-.2a4.45,4.45,0,0,0,.826-.316,3.485,3.485,0,0,0,1.564-1.33,4.21,4.21,0,0,0,.6-1.778,6.139,6.139,0,0,0-.073-1.8,6.246,6.246,0,0,0-.614-1.7,4.2,4.2,0,0,0-1.226-1.43,3.484,3.484,0,0,0-1.95-.642,4.054,4.054,0,0,0-.883.028q-.471.064-.842.136l-6.4,1.253Z" transform="translate(-133.114 -3.11)" fill="#fff"/>
    <path id="Контур_119" data-name="Контур 119" d="M881.076,225.547,886.9,198.89l4.461.975-2.452,11.218,12.625,2.759,2.452-11.218,4.443.971-5.826,26.658-4.443-.971,2.46-11.255L888,215.267l-2.459,11.255Z" transform="translate(-194.437)" fill="#fff"/>
    <path id="Контур_120" data-name="Контур 120" d="M955.311,264.466l23.144-16.821,5.378,3.978-9.311,27.053-3.778-2.795,8.283-24.325.823.609-20.76,15.1Zm7.37-1.9,2.536-3.428,11.517,8.519-2.536,3.428Z" transform="translate(-246.165 -33.973)" fill="#fff"/>
    <path id="Контур_121" data-name="Контур 121" d="M1029.617,334.074a13.39,13.39,0,0,1-1.913-5.147,10.065,10.065,0,0,1,.5-4.919,9.653,9.653,0,0,1,2.922-4.074l3.078,3.672a6.263,6.263,0,0,0-1.91,4.079,7.368,7.368,0,0,0,1.128,4.4,8.192,8.192,0,0,0,1.817,2.11,5.1,5.1,0,0,0,2.222,1.1,3.038,3.038,0,0,0,2.248-.425,2.871,2.871,0,0,0,.8-.709,2.569,2.569,0,0,0,.446-.926,3.91,3.91,0,0,0,.1-1.169,7.114,7.114,0,0,0-.233-1.422l-1.884-7.1a17.886,17.886,0,0,1-.412-2.045,7.863,7.863,0,0,1,.017-2.34,6.028,6.028,0,0,1,.918-2.355,6.852,6.852,0,0,1,2.271-2.081,7.19,7.19,0,0,1,4.474-1.159,8.046,8.046,0,0,1,4.162,1.681,13.387,13.387,0,0,1,3.36,3.844,12.875,12.875,0,0,1,1.784,4.771,9.59,9.59,0,0,1-.411,4.554,10.456,10.456,0,0,1-2.591,4.017l-3.28-3.749a5.448,5.448,0,0,0,1.49-2.271,5.63,5.63,0,0,0,.226-2.6,7.159,7.159,0,0,0-.889-2.554,7.025,7.025,0,0,0-1.663-1.949,4.554,4.554,0,0,0-2.02-.967,2.7,2.7,0,0,0-1.956.358,2.276,2.276,0,0,0-1.085,1.37,4.312,4.312,0,0,0-.075,1.809,14.847,14.847,0,0,0,.424,1.882l1.376,4.885q.3,1,.557,2.3a10.231,10.231,0,0,1,.167,2.716,6.452,6.452,0,0,1-.839,2.74,6.794,6.794,0,0,1-2.492,2.393,7.6,7.6,0,0,1-3.639,1.184,7.878,7.878,0,0,1-3.51-.648,10.844,10.844,0,0,1-3.138-2.094A15.092,15.092,0,0,1,1029.617,334.074Z" transform="translate(-296.537 -79.887)" fill="#fff"/>
    <path id="Контур_122" data-name="Контур 122" d="M1054.9,406.173l26.894-4.614,2.98,17.369-4.221.724-2.208-12.868-6.63,1.137,1.823,10.627-4.221.724-1.823-10.627-7.6,1.3,2.208,12.868-4.221.724Z" transform="translate(-315.556 -141.223)" fill="#fff"/>
  </g>
</svg>
