<svg xmlns="http://www.w3.org/2000/svg" width="70.759" height="85.713" viewBox="0 0 70.759 85.713">
  <g id="Reaction_3" data-name="Reaction #3" transform="translate(-805.437 -233.417)">
    <path id="Path_45" data-name="Path 45" d="M4001.9,178.482h0c.343,0,.631.237,1.2.709a23.19,23.19,0,0,0,9.935,4.824,48.768,48.768,0,0,0,11.973,1.2c3.087,0,6.3-.148,9.415-.29,3.067-.141,6.24-.286,9.242-.286,7.321,0,12.286.9,16.1,2.922,2.951,1.564,4.66,3.224,5.225,5.074.758,2.48-.593,5.013-2.023,7.7-1.376,2.581-2.936,5.505-2.936,8.887,0,3.776.153,6.037.276,7.855a37.569,37.569,0,0,1-.28,9.089c-.212,1.629-.336,2.94-.446,4.1-.381,4.026-.538,5.692-3.553,9.052-2.863,3.191-4.353,3.289-7.321,3.484-1.049.069-2.354.155-4,.4a13.881,13.881,0,0,1-2.048.153,20.958,20.958,0,0,1-5.005-.737,15.145,15.145,0,0,0-3.384-.551,5.319,5.319,0,0,0-3.21,1.049c-2.345,1.664-2.062,8.583-1.875,13.161.146,3.581.155,4.879-.33,5.384a.709.709,0,0,1-.514.224.792.792,0,0,1-.365-.094c-.909-.47-1.174-2.569-1.648-8.008-.24-2.752-.512-5.871-.991-8.559-.532-2.983-1.25-4.967-2.135-5.9-1.36-1.429-2.146-1.622-2.735-1.622a6.155,6.155,0,0,0-2.09.572,14.849,14.849,0,0,1-5.449,1.206,13.266,13.266,0,0,0-5.168,1.334,8.794,8.794,0,0,1-3.416.954c-1.525,0-2.985-.749-4.732-2.427-1.8-1.733-2.514-6.042-2.235-13.559.238-6.408,1.154-14.119,2.039-21.576.718-6.046,1.4-11.757,1.643-16.227.187-3.387.145-5.662.119-7.021-.028-1.477-.037-1.975.26-2.278A.639.639,0,0,1,4001.9,178.482Zm23.113,7.732a49.711,49.711,0,0,1-12.218-1.23,24.12,24.12,0,0,1-10.325-5.021c-.1-.082-.2-.167-.3-.244-.007.307,0,.742.01,1.215.026,1.373.069,3.672-.12,7.1-.249,4.5-.928,10.227-1.648,16.289-.883,7.437-1.8,15.128-2.033,21.5a48.435,48.435,0,0,0,.246,8.224c.316,2.268.882,3.807,1.682,4.577,1.546,1.486,2.792,2.148,4.039,2.148a7.966,7.966,0,0,0,3.023-.874,14.107,14.107,0,0,1,5.534-1.414,13.98,13.98,0,0,0,5.114-1.138,6.9,6.9,0,0,1,2.452-.639c1.135,0,2.17.578,3.459,1.933,1.036,1.089,1.82,3.186,2.395,6.411.487,2.732.761,5.875,1,8.648.164,1.883.319,3.661.516,4.989a10.364,10.364,0,0,0,.387,1.8c.024-.22.043-.535.047-.982.008-.852-.036-1.935-.088-3.189a65.437,65.437,0,0,1,.007-8.006c.277-3.149,1.026-5.116,2.289-6.011a6.275,6.275,0,0,1,3.789-1.234,15.849,15.849,0,0,1,3.615.578,19.858,19.858,0,0,0,4.774.71,12.7,12.7,0,0,0,1.9-.142c1.686-.252,3.014-.34,4.082-.41,2.865-.188,4.051-.266,6.642-3.154,2.794-3.115,2.922-4.466,3.3-8.478.11-1.165.235-2.486.449-4.132a36.359,36.359,0,0,0,.274-8.893c-.124-1.832-.279-4.113-.279-7.923,0-3.632,1.623-6.674,3.054-9.358,1.388-2.6,2.586-4.848,1.949-6.932-.484-1.583-2.033-3.049-4.737-4.482-3.659-1.94-8.479-2.805-15.628-2.805-2.98,0-6.14.145-9.2.285C4031.348,186.066,4028.12,186.215,4025.009,186.215Z" transform="matrix(0.999, 0.035, -0.035, 0.999, -3180.305, -84.461)" fill="#fff"/>
    <path id="Icon_material-message" data-name="Icon material-message" d="M21.856,3H5.1A2.092,2.092,0,0,0,3.01,5.1L3,23.951l4.19-4.19H21.856a2.1,2.1,0,0,0,2.1-2.1V5.1A2.1,2.1,0,0,0,21.856,3Zm-2.1,12.57H7.19v-2.1h12.57Zm0-3.143H7.19v-2.1h12.57Zm0-3.143H7.19V7.19h12.57Z" transform="translate(828.568 243.877) rotate(5)" fill="#fff"/>
    <path id="Path_142" data-name="Path 142" d="M3.51,0V-10.593L1.08-9.108V-11.5L3.51-12.96H5.724V0ZM8.784,0V-2.223h2.223V0Zm9.288-13.212a4.422,4.422,0,0,1,2.286.6,4.327,4.327,0,0,1,1.607,1.656,4.916,4.916,0,0,1,.59,2.434v3.951a5.316,5.316,0,0,1-.59,2.561A4.143,4.143,0,0,1,20.313-.324,5.005,5.005,0,0,1,17.829.27a5.1,5.1,0,0,1-1.854-.337,4.43,4.43,0,0,1-1.566-1.039l1.557-1.521a2.506,2.506,0,0,0,.841.635,2.383,2.383,0,0,0,1.022.23,2.438,2.438,0,0,0,1.323-.355,2.511,2.511,0,0,0,.882-.927,2.5,2.5,0,0,0,.315-1.229V-6.426l.387.432A3.857,3.857,0,0,1,19.4-4.982a3.857,3.857,0,0,1-1.647.365A4.143,4.143,0,0,1,15.6-5.175a4,4,0,0,1-1.476-1.516,4.38,4.38,0,0,1-.535-2.174,4.087,4.087,0,0,1,.612-2.2,4.519,4.519,0,0,1,1.634-1.566A4.449,4.449,0,0,1,18.072-13.212Zm0,2.07a2.236,2.236,0,0,0-1.152.306,2.294,2.294,0,0,0-.828.824,2.212,2.212,0,0,0-.306,1.148,2.262,2.262,0,0,0,.3,1.152,2.258,2.258,0,0,0,.819.828,2.212,2.212,0,0,0,1.148.306,2.236,2.236,0,0,0,1.152-.306,2.318,2.318,0,0,0,.833-.828,2.211,2.211,0,0,0,.31-1.152,2.179,2.179,0,0,0-.306-1.13,2.378,2.378,0,0,0-.823-.832A2.164,2.164,0,0,0,18.072-11.142ZM25.668,0l4.464-10.908H24.471V-12.96h7.983v2.052L28.008,0ZM34.6,0l.018-12.96h2.2v7.92l3.555-4.68h2.709L39.3-4.86,43.4,0H40.527L36.81-4.68V0Z" transform="matrix(0.996, 0.087, -0.087, 0.996, 817, 286)" fill="#fff"/>
  </g>
</svg>
