<svg xmlns="http://www.w3.org/2000/svg" width="1163.629" height="31.54" viewBox="0 0 1163.629 31.54">
  <g id="Сгруппировать_140" data-name="Сгруппировать 140" transform="translate(-96.382 -4713.19)">
    <path id="Контур_84" data-name="Контур 84" d="M2058.163,4733.4s71.459-1.7,129.171,0,53.035,6.807,101.678,6.807,35-2.683,92.894-6.807,138.7-9.688,138.7-9.688" transform="translate(-1961.769)" fill="none" stroke="#fff" stroke-width="1"/>
    <path id="Контур_85" data-name="Контур 85" d="M2578.833,4733.4s-80.457-1.7-145.437,0-59.713,6.807-114.481,6.807-39.4-2.683-104.592-6.807-156.162-9.688-156.162-9.688" transform="translate(-1318.833)" fill="none" stroke="#fff" stroke-width="1"/>
    <path id="Контур_86" data-name="Контур 86" d="M2602.566,4720.7s1.824,9,7.15,7.986,7.566-12.046,14.154-12.046,3.773,11.031,12.2,12.046,13.639-8.743,21.507-7.986,2.063,9.017,9.963,11.014,12.481-5.339,21.636-3.028,8.935,14.271,14.982,12.274,4.02-17.949,9.208-20.26,3.013,11.014,11.546,11.014S2747.5,4720.7,2747.5,4720.7" transform="translate(-2020)" fill="none" stroke="#fff" stroke-width="1"/>
    <path id="Контур_87" data-name="Контур 87" d="M2602.566,4720.7s1.824,9,7.15,7.986,7.566-12.046,14.154-12.046,3.773,11.031,12.2,12.046,13.639-8.743,21.507-7.986,2.063,9.017,9.963,11.014,12.481-5.339,21.636-3.028,8.935,14.271,14.982,12.274,4.02-17.949,9.208-20.26,3.013,11.014,11.546,11.014S2747.5,4720.7,2747.5,4720.7" transform="translate(-2020 3.053)" fill="none" stroke="#fff" stroke-width="1"/>
    <path id="Контур_88" data-name="Контур 88" d="M2602.566,4720.7s1.824,9,7.15,7.986,7.566-12.046,14.154-12.046,3.773,11.031,12.2,12.046,13.639-8.743,21.507-7.986,2.063,9.017,9.963,11.014,12.481-5.339,21.636-3.028,8.935,14.271,14.982,12.274,4.02-17.949,9.208-20.26,3.013,11.014,11.546,11.014S2747.5,4720.7,2747.5,4720.7" transform="translate(-2019 -2.947)" fill="none" stroke="#fff" stroke-width="1"/>
  </g>
</svg>
