<svg id="Logo" xmlns="http://www.w3.org/2000/svg" xmlns:xlink="http://www.w3.org/1999/xlink" width="164" height="42.477" viewBox="0 0 164 42.477">
  <defs>
    <filter id="Прямоугольник_56" x="23.377" y="0" width="38.07" height="67.477" filterUnits="userSpaceOnUse">
      <feOffset dy="16" input="SourceAlpha"/>
      <feGaussianBlur stdDeviation="3" result="blur"/>
      <feFlood flood-opacity="0.161"/>
      <feComposite operator="in" in2="blur"/>
      <feComposite in="SourceGraphic"/>
    </filter>
    <clipPath id="clip-path">
      <rect id="Прямоугольник_52" data-name="Прямоугольник 52" width="20.63" height="42.477" fill="#fff"/>
    </clipPath>
    <clipPath id="clip-path-2">
      <rect id="Прямоугольник_51" data-name="Прямоугольник 51" width="20.761" height="42.875" fill="#fff"/>
    </clipPath>
    <clipPath id="clip-path-3">
      <rect id="Прямоугольник_54" data-name="Прямоугольник 54" width="5.689" height="42.477" fill="#fff"/>
    </clipPath>
    <clipPath id="clip-path-4">
      <rect id="Прямоугольник_53" data-name="Прямоугольник 53" width="5.416" height="41.973" fill="#fff"/>
    </clipPath>
    <clipPath id="clip-path-5">
      <g transform="matrix(1, 0, 0, 1, 0, 0)" filter="url(#Прямоугольник_56)">
        <rect id="Прямоугольник_56-2" data-name="Прямоугольник 56" width="20.07" height="42.477" fill="#fff"/>
      </g>
    </clipPath>
    <clipPath id="clip-path-6">
      <rect id="Прямоугольник_55" data-name="Прямоугольник 55" width="19.858" height="41.521" fill="#fff"/>
    </clipPath>
    <clipPath id="clip-path-7">
      <rect id="Прямоугольник_58" data-name="Прямоугольник 58" width="21.846" height="42.477" fill="#fff"/>
    </clipPath>
    <clipPath id="clip-path-8">
      <rect id="Прямоугольник_57" data-name="Прямоугольник 57" width="20.309" height="39.716" fill="#fff"/>
    </clipPath>
    <clipPath id="clip-path-9">
      <rect id="Прямоугольник_60" data-name="Прямоугольник 60" width="15.929" height="42.477" fill="#fff"/>
    </clipPath>
    <clipPath id="clip-path-10">
      <rect id="Прямоугольник_59" data-name="Прямоугольник 59" width="16.247" height="42.424" fill="#fff"/>
    </clipPath>
    <clipPath id="clip-path-11">
      <rect id="Прямоугольник_62" data-name="Прямоугольник 62" width="18.984" height="42.477" fill="#fff"/>
    </clipPath>
    <clipPath id="clip-path-12">
      <rect id="Прямоугольник_61" data-name="Прямоугольник 61" width="18.504" height="41.521" fill="#fff"/>
    </clipPath>
    <clipPath id="clip-path-13">
      <rect id="Прямоугольник_64" data-name="Прямоугольник 64" width="19.014" height="42.477" fill="#fff"/>
    </clipPath>
    <clipPath id="clip-path-14">
      <rect id="Прямоугольник_63" data-name="Прямоугольник 63" width="18.955" height="42.424" fill="#fff"/>
    </clipPath>
    <clipPath id="clip-path-16">
      <rect id="Прямоугольник_65" data-name="Прямоугольник 65" width="20.761" height="42.424" fill="#fff"/>
    </clipPath>
  </defs>
  <g id="Сгруппировать_79" data-name="Сгруппировать 79" transform="translate(0 0)" clip-path="url(#clip-path)">
    <g id="Сгруппировать_78" data-name="Сгруппировать 78" transform="translate(0.087 -0.038)" clip-path="url(#clip-path-2)">
      <path id="Контур_1" data-name="Контур 1" d="M8.1,42l5.571-.857L6.059,1.356.488,2.212Z" transform="translate(-0.488 0.879)" fill="#fff"/>
      <path id="Контур_2" data-name="Контур 2" d="M10.8.927,6.713,23.612l.557,2.906L11.912.778ZM13.026.591,7.79,29.423l.557,2.906L14.141.442ZM15.218.107,8.9,35.234l.557,2.906L16.332.107Z" transform="translate(4.429 -0.107)" fill="#fff"/>
    </g>
  </g>
  <g id="Сгруппировать_81" data-name="Сгруппировать 81" transform="translate(23.66 0)" clip-path="url(#clip-path-3)">
    <g id="Сгруппировать_80" data-name="Сгруппировать 80" transform="translate(0.218 -0.038)" clip-path="url(#clip-path-4)">
      <path id="Контур_3" data-name="Контур 3" d="M17.5.107l-1.083.15V41.443l1.083-.187ZM15.335.444l-1.083.15V41.78l1.083-.187ZM13.169.782l-1.083.15V42.08l1.083-.15Z" transform="translate(-12.086 -0.107)" fill="#fff"/>
    </g>
  </g>
  <g id="Сгруппировать_83" data-name="Сгруппировать 83" transform="translate(32.377)" clip-path="url(#clip-path-5)">
    <g id="Сгруппировать_82" data-name="Сгруппировать 82" transform="translate(-0.054 -0.038)" clip-path="url(#clip-path-6)">
      <path id="Контур_4" data-name="Контур 4" d="M17.333,38.073h1.109V24.4H17.333ZM15.114,16.947h1.109V4.63H15.114Zm0,21.455h1.109V24.7H15.114Zm2.219-21.93,1.109-.183V4.191H17.333ZM19.552,4.191v12.1h1.109V4.191Zm0,33.59h1.109V24.074H19.552Z" transform="translate(-15.114 3.119)" fill="#fff"/>
      <path id="Контур_5" data-name="Контур 5" d="M26.578,5.854a3.853,3.853,0,0,1,1.257,2.924v2.778l5.177-.768a28.907,28.907,0,0,0-.518-5.629,6.873,6.873,0,0,0-1.214-2.447A6.963,6.963,0,0,0,29.2.92,9.344,9.344,0,0,0,23.435.3L15.114,1.5V6.658l8.431-1.243A4.072,4.072,0,0,1,26.578,5.854Z" transform="translate(-15.114 -0.116)" fill="#fff"/>
      <path id="Контур_6" data-name="Контур 6" d="M25.631,13.6a12.638,12.638,0,0,1-5.1,2.376l4.327,12.939,5.843-.841Z" transform="translate(-10.838 10.556)" fill="#fff"/>
      <path id="Контур_7" data-name="Контур 7" d="M27.872,7.613v.329a9.656,9.656,0,0,1-.7,4.861,4.819,4.819,0,0,1-1.583,1.546,4.882,4.882,0,0,1-2.115.683l-8.357,1.206v5.154l8.357-1.243A10.661,10.661,0,0,0,27.622,18.8a10.536,10.536,0,0,0,3.245-2.892A14.775,14.775,0,0,0,32.975,7.1V6.845Z" transform="translate(-15.114 5.216)" fill="#fff"/>
    </g>
  </g>
  <g id="Сгруппировать_85" data-name="Сгруппировать 85" transform="translate(55.477)" clip-path="url(#clip-path-7)">
    <g id="Сгруппировать_84" data-name="Сгруппировать 84" transform="translate(0.185 -0.038)" clip-path="url(#clip-path-8)">
      <path id="Контур_8" data-name="Контур 8" d="M39.165.107l-5.1.758-7.6,38.958,5.137-.758Z" transform="translate(-26.459 -0.107)" fill="#fff"/>
      <path id="Контур_9" data-name="Контур 9" d="M30.936,20.093,41.69,18.474,40.7,13.789,31.9,15.1Z" transform="translate(-22.922 10.702)" fill="#fff"/>
      <path id="Контур_10" data-name="Контур 10" d="M40.706,29.143l-1.027.172,1.3,6.235h1.027Zm-3.425-6.889L34.062,7.167l-.514,2.652,2.6,12.538Zm2.055-.31L35.089,1.9l-.514,2.652L38,22.048Zm-6.85-6.889,1.61,7.75h1.027L33.034,12.472Zm5.137,14.64,1.2,6.166H39.85l-1.027-6.407ZM35.6,30l1.267,6.235,1.027-.172L36.63,29.695Z" transform="translate(-21.697 1.307)" fill="#fff"/>
    </g>
  </g>
  <g id="Сгруппировать_87" data-name="Сгруппировать 87" transform="translate(80.354 0)" clip-path="url(#clip-path-9)">
    <g id="Сгруппировать_86" data-name="Сгруппировать 86" transform="translate(-0.9 -0.038)" clip-path="url(#clip-path-10)">
      <path id="Контур_11" data-name="Контур 11" d="M54.306,19.512,38.059,21.86V27.2l16.248-2.348Z" transform="translate(-38.059 15.223)" fill="#fff"/>
      <path id="Контур_12" data-name="Контур 12" d="M38.059,35.751h1.16V.789L38.059.94Zm2.321-.341h1.16V.448L40.38.6ZM42.7.107V34.955l1.16-.189V.107Z" transform="translate(-38.059 -0.107)" fill="#fff"/>
    </g>
  </g>
  <g id="Сгруппировать_89" data-name="Сгруппировать 89" transform="translate(99.313)" clip-path="url(#clip-path-11)">
    <g id="Сгруппировать_88" data-name="Сгруппировать 88" transform="translate(0.32 -0.038)" clip-path="url(#clip-path-12)">
      <path id="Контур_13" data-name="Контур 13" d="M56.194,35.938a3.453,3.453,0,0,1-1.917-.593c-1.253-.926-1.106-2.7-1.106-4.223V12.084A6.692,6.692,0,0,1,54.277,7.01a4.382,4.382,0,0,1,1.917-1.185V.231a11.76,11.76,0,0,0-2.617.963,11.093,11.093,0,0,0-5.308,5.926,12.467,12.467,0,0,0-.627,4V32.715a12.949,12.949,0,0,0,.369,3.7,7.384,7.384,0,0,0,5.566,5.037,10.272,10.272,0,0,0,2.617.185Z" transform="translate(-47.641 -0.009)" fill="#fff"/>
      <path id="Контур_14" data-name="Контур 14" d="M58.925,34.451a9.037,9.037,0,0,0,.627-3.7V10.375a11.161,11.161,0,0,0-.627-4.852A5.276,5.276,0,0,0,55.239,2.56a8.109,8.109,0,0,0-2.027-.185V3.486a5.252,5.252,0,0,1,3.354.963,5.831,5.831,0,0,1,1.88,5.334V29.228a3.735,3.735,0,0,0,0,.63,7.84,7.84,0,0,1-1.917,6.223,6.994,6.994,0,0,1-3.354,1.926v1.111a7.754,7.754,0,0,0,1.88-.7A8.388,8.388,0,0,0,58.925,34.451ZM57.377,30.08a4.028,4.028,0,0,1,0-.667V9.931A5.091,5.091,0,0,0,55.9,5.375,4.665,4.665,0,0,0,53.249,4.6V5.708a3.123,3.123,0,0,1,1.917.63c1.29.889,1.106,2.7,1.106,4.185V29.747a6.656,6.656,0,0,1-1.106,5.112,4.457,4.457,0,0,1-1.917,1.148v1.111A5.746,5.746,0,0,0,55.9,35.562a6.729,6.729,0,0,0,1.474-5.482ZM61.063,4.153A7.117,7.117,0,0,0,55.829.337,8.843,8.843,0,0,0,53.212.115V1.226a9.06,9.06,0,0,1,2.248,0,6.345,6.345,0,0,1,4.5,3.482,12.167,12.167,0,0,1,.7,5.3V30.747a10.23,10.23,0,0,1-.737,4.037,9.758,9.758,0,0,1-4.46,4.667,8.638,8.638,0,0,1-2.248.815v1.148a10.188,10.188,0,0,0,2.617-.963,11.088,11.088,0,0,0,5.087-5.334,10.862,10.862,0,0,0,.774-4.556V10.82A14.883,14.883,0,0,0,60.952,4.3Z" transform="translate(-43.26 -0.115)" fill="#fff"/>
    </g>
  </g>
  <g id="Сгруппировать_91" data-name="Сгруппировать 91" transform="translate(121.326)" clip-path="url(#clip-path-13)">
    <g id="Сгруппировать_90" data-name="Сгруппировать 90" transform="translate(-0.159 -0.038)" clip-path="url(#clip-path-14)">
      <path id="Контур_15" data-name="Контур 15" d="M63.341,7.12a10.411,10.411,0,0,0-.831,5.218V32.189a7.192,7.192,0,0,0,.906,4.462A3.321,3.321,0,0,0,66.4,37.86V36.688a2.112,2.112,0,0,1-2-.794,7.192,7.192,0,0,1-.755-4.31V12.867a11.7,11.7,0,0,1,.68-5.331A3.059,3.059,0,0,1,66.4,5.948V4.813A4.305,4.305,0,0,0,63.341,7.12Zm-1.208-2a7.108,7.108,0,0,0-1.4,2.42,8.784,8.784,0,0,0-.491,2.836V33.739a8.824,8.824,0,0,0,.491,3.29,4.722,4.722,0,0,0,3.776,2.987,9.7,9.7,0,0,0,1.813,0v-1.1a4.376,4.376,0,0,1-4.04-1.55,7.04,7.04,0,0,1-.906-4.651V11.506a7.874,7.874,0,0,1,.831-4.689A6.155,6.155,0,0,1,66.4,3.755V2.545a7.962,7.962,0,0,0-2.115.832A7.553,7.553,0,0,0,62.132,5.116Zm1.322-3.781a11.333,11.333,0,0,0-2.907,2.42,9.718,9.718,0,0,0-1.888,3.176,10.218,10.218,0,0,0-.68,3.781V34a10.712,10.712,0,0,0,.642,4.121,6.684,6.684,0,0,0,5.4,4.2,12.514,12.514,0,0,0,2.379,0V41.188a12.689,12.689,0,0,1-2.077,0,5.741,5.741,0,0,1-4.645-3.4A9.8,9.8,0,0,1,59.112,34V10.447a8.632,8.632,0,0,1,.6-3.29A8.851,8.851,0,0,1,61.34,4.4a9.67,9.67,0,0,1,2.53-2.042A10.6,10.6,0,0,1,66.4,1.41V.276a11.015,11.015,0,0,0-2.945,1.1Z" transform="translate(-57.978 0.026)" fill="#fff"/>
      <path id="Контур_16" data-name="Контур 16" d="M73.047,10.056,62.89,11.531v5.331l10.157-1.475Z" transform="translate(-54.092 7.753)" fill="#fff"/>
      <path id="Контур_17" data-name="Контур 17" d="M71.6,4.388A7.289,7.289,0,0,0,66.351.342,9.089,9.089,0,0,0,63.67.115V5.787a3.206,3.206,0,0,1,1.963.643,3.216,3.216,0,0,1,1.133,2.836v2.987l5.588-.794V8.472A9.046,9.046,0,0,0,71.6,4.388Z" transform="translate(-53.475 -0.115)" fill="#fff"/>
      <path id="Контур_18" data-name="Контур 18" d="M66.766,14.669v6.655a4.465,4.465,0,0,1-1.133,3.214A4.567,4.567,0,0,1,63.67,25.71v5.709a10.442,10.442,0,0,0,2.681-.983,11.118,11.118,0,0,0,6-9.944V13.837Z" transform="translate(-53.475 10.74)" fill="#fff"/>
    </g>
  </g>
  <g id="Сгруппировать_93" data-name="Сгруппировать 93" transform="translate(143.37)" clip-path="url(#clip-path)">
    <g id="Сгруппировать_92" data-name="Сгруппировать 92" transform="translate(-0.219 -0.038)" clip-path="url(#clip-path-16)">
      <path id="Контур_19" data-name="Контур 19" d="M72.819,30.754h1.114V16.01H72.819ZM77.239,15.2V29.943l1.114-.184V15.015ZM75.011,30.422l1.114-.184V15.494H75.011Z" transform="translate(-65.207 11.67)" fill="#fff"/>
      <path id="Контур_20" data-name="Контур 20" d="M77.556,22.923,84.427.107,78.856.918,74.77,14.482Z" transform="translate(-63.665 -0.107)" fill="#fff"/>
      <path id="Контур_21" data-name="Контур 21" d="M76.143,25.227l5.571-.811L74.137,1.343l-5.571.811Z" transform="translate(-68.566 0.869)" fill="#fff"/>
    </g>
  </g>
</svg>
