<svg xmlns="http://www.w3.org/2000/svg" width="134.593" height="235.945" viewBox="0 0 134.593 235.945">
  <g id="Сгруппировать_142" data-name="Сгруппировать 142" transform="translate(-4400.374 -3839.476)">
    <g id="Сгруппировать_137" data-name="Сгруппировать 137" transform="translate(4073 -519.707)">
      <path id="Контур_78" data-name="Контур 78" d="M2408.082,4594.542s-2.68-13.718,0-19.568,8.042-3.833,10.722-3.833,5.639,7.306,0,3.833-13.928-6.927-22.556-17.725-7.793-12.76-11.958-25.466-1.98-12.106-4.7-25.357-3.5-16.253-6.189-27.647-2.271-7.687-4.575-17.928.017-10.8-4.645-23.037-10.5-13.516-14-25.908-2.617-17.745,0-23.66,5.805-3.211,10.466,0,3.443,4.366,8.178,12.846,6.9,11.173,10.764,21.073,1.6,10.3,4.7,18.527,4.709,9.347,7.7,14.387,1.679,5.773,4.259,5.773,4.546,2.1,6.062-5.773,2.751-11.371,4.194-24.867.135-16.838,1.578-29.119-.685-11.9,0-20.875-.644-12.268,2.741-15.029,8.1-1.782,10.8,3.982.262,8.392,1.256,19.076,1.725,14.257,2.719,23.66,0,6.757,0,13.953v25.926" transform="translate(-2020)" fill="none" stroke="#fff" stroke-linecap="round" stroke-width="1"/>
      <path id="Контур_79" data-name="Контур 79" d="M2423.261,4471.264a161.371,161.371,0,0,1,5.678-15.7c2.754-6.072,2.351-5.5,5.338-8.587s2.464-4.253,6.611-3.749,6.691,3.355,9.978,5.768,2.376.613,3.168,3.882,0,5.6,0,9.2-1.833,3.9,0,5.194,4.038-1.707,7.331,0,3.851,3.1,5.841,6.826,1.588,3.425,2.117,8.083,0,5.441,0,10.55v9.885c0,4.152-.439,3.275,0,6.725s1.318,2.924,1.757,7.073,0,3.744,0,9.521.969,7.988,0,13.587-2.168,4.71-3.874,8.807-.4,4.441-2.947,7.582-5.444,3.734-7.258,4.979" transform="translate(-2020)" fill="none" stroke="#fff" stroke-linecap="round" stroke-width="1"/>
      <path id="Контур_80" data-name="Контур 80" d="M2463.949,4559.643v8.211l-1.186,7.781" transform="translate(-2020)" fill="none" stroke="#fff" stroke-linecap="round" stroke-width="1"/>
      <path id="Контур_81" data-name="Контур 81" d="M2392.689,4498.73l10.133-9.24,9.213-8.639,11.516-5.807,12.532-5.42,8.765-1.722,6.667,1.722,3.036,4.306v6.922l-3.036,7.4-6.667,3.615-6.123,3.363-5.879,3.5-3.714,4.966-4.546,6.611-5.591,5.534" transform="translate(-2020)" fill="none" stroke="#fff" stroke-linecap="round" stroke-width="1"/>
      <path id="Контур_82" data-name="Контур 82" d="M2432.781,4507.089a4.327,4.327,0,0,0,1.117,3.047,7,7,0,0,0,3.867,2.138c1.838.535,1.553.535,3.485,0s2.071-.842,4.243-2.138a19.589,19.589,0,0,0,4.445-3.047,31.13,31.13,0,0,0,4.027-4.395c1.67-1.935,1.02-2.036,2.652-3.346s2.049-.5,3.876-1.9a21.482,21.482,0,0,0,3.435-3.7" transform="translate(-2020)" fill="none" stroke="#fff" stroke-linecap="round" stroke-width="1"/>
    </g>
    <g id="Сгруппировать_138" data-name="Сгруппировать 138" transform="translate(4081 -523.707)">
      <path id="Контур_78-2" data-name="Контур 78" d="M2408.082,4594.542s-2.68-13.718,0-19.568,8.042-3.833,10.722-3.833,5.639,7.306,0,3.833-13.928-6.927-22.556-17.725-7.793-12.76-11.958-25.466-1.98-12.106-4.7-25.357-3.5-16.253-6.189-27.647-2.271-7.687-4.575-17.928.017-10.8-4.645-23.037-10.5-13.516-14-25.908-2.617-17.745,0-23.66,5.805-3.211,10.466,0,3.443,4.366,8.178,12.846,6.9,11.173,10.764,21.073,1.6,10.3,4.7,18.527,4.709,9.347,7.7,14.387,1.679,5.773,4.259,5.773,4.546,2.1,6.062-5.773,2.751-11.371,4.194-24.867.135-16.838,1.578-29.119-.685-11.9,0-20.875-.644-12.268,2.741-15.029,8.1-1.782,10.8,3.982.262,8.392,1.256,19.076,1.725,14.257,2.719,23.66,0,6.757,0,13.953v25.926" transform="translate(-2020)" fill="none" stroke="#fff" stroke-linecap="round" stroke-width="1"/>
      <path id="Контур_79-2" data-name="Контур 79" d="M2423.261,4471.264a161.371,161.371,0,0,1,5.678-15.7c2.754-6.072,2.351-5.5,5.338-8.587s2.464-4.253,6.611-3.749,6.691,3.355,9.978,5.768,2.376.613,3.168,3.882,0,5.6,0,9.2-1.833,3.9,0,5.194,4.038-1.707,7.331,0,3.851,3.1,5.841,6.826,1.588,3.425,2.117,8.083,0,5.441,0,10.55v9.885c0,4.152-.439,3.275,0,6.725s1.318,2.924,1.757,7.073,0,3.744,0,9.521.969,7.988,0,13.587-2.168,4.71-3.874,8.807-.4,4.441-2.947,7.582-5.444,3.734-7.258,4.979" transform="translate(-2020)" fill="none" stroke="#fff" stroke-linecap="round" stroke-width="1"/>
      <path id="Контур_80-2" data-name="Контур 80" d="M2463.949,4559.643v8.211l-1.186,7.781" transform="translate(-2020)" fill="none" stroke="#fff" stroke-linecap="round" stroke-width="1"/>
      <path id="Контур_81-2" data-name="Контур 81" d="M2392.689,4498.73l10.133-9.24,9.213-8.639,11.516-5.807,12.532-5.42,8.765-1.722,6.667,1.722,3.036,4.306v6.922l-3.036,7.4-6.667,3.615-6.123,3.363-5.879,3.5-3.714,4.966-4.546,6.611-5.591,5.534" transform="translate(-2020)" fill="none" stroke="#fff" stroke-linecap="round" stroke-width="1"/>
      <path id="Контур_82-2" data-name="Контур 82" d="M2432.781,4507.089a4.327,4.327,0,0,0,1.117,3.047,7,7,0,0,0,3.867,2.138c1.838.535,1.553.535,3.485,0s2.071-.842,4.243-2.138a19.589,19.589,0,0,0,4.445-3.047,31.13,31.13,0,0,0,4.027-4.395c1.67-1.935,1.02-2.036,2.652-3.346s2.049-.5,3.876-1.9a21.482,21.482,0,0,0,3.435-3.7" transform="translate(-2020)" fill="none" stroke="#fff" stroke-linecap="round" stroke-width="1"/>
    </g>
    <g id="Сгруппировать_139" data-name="Сгруппировать 139" transform="translate(4090.151 -514.355)">
      <path id="Контур_78-3" data-name="Контур 78" d="M2404.6,4581.19s-2.525-12.924,0-18.437,7.577-3.612,10.1-3.612,5.313,6.883,0,3.612-13.122-6.527-21.252-16.7-7.342-12.022-11.266-23.993-1.866-11.406-4.431-23.891-3.3-15.313-5.831-26.048-2.139-7.242-4.311-16.891.016-10.176-4.376-21.7-9.893-12.734-13.19-24.409-2.465-16.719,0-22.292,5.469-3.025,9.861,0,3.244,4.114,7.706,12.1,6.5,10.527,10.141,19.854,1.51,9.7,4.431,17.455,4.437,8.806,7.253,13.555,1.582,5.439,4.013,5.439,4.283,1.983,5.711-5.439,2.592-10.713,3.952-23.429.127-15.864,1.487-27.435-.646-11.21,0-19.667-.607-11.558,2.583-14.16,7.631-1.679,10.175,3.752.247,7.907,1.183,17.973,1.625,13.432,2.561,22.292,0,6.366,0,13.146v24.427" transform="translate(-2020)" fill="none" stroke="#fff" stroke-linecap="round" stroke-width="1"/>
      <path id="Контур_79-3" data-name="Контур 79" d="M2423.261,4469.636a151.977,151.977,0,0,1,5.35-14.792c2.595-5.721,2.215-5.185,5.03-8.091s2.322-4.007,6.229-3.532,6.3,3.161,9.4,5.435,2.238.577,2.984,3.658,0,5.274,0,8.664-1.727,3.67,0,4.893,3.8-1.608,6.907,0,3.628,2.919,5.5,6.431,1.5,3.227,1.994,7.616,0,5.127,0,9.94v9.313c0,3.913-.414,3.086,0,6.336s1.241,2.755,1.655,6.664,0,3.527,0,8.971.913,7.526,0,12.8-2.043,4.438-3.649,8.3-.373,4.185-2.777,7.143-5.129,3.519-6.838,4.691" transform="translate(-2024.361 -4.593)" fill="none" stroke="#fff" stroke-linecap="round" stroke-width="1"/>
      <path id="Контур_80-3" data-name="Контур 80" d="M2463.881,4559.644v7.736l-1.117,7.331" transform="translate(-2026.646 -11.334)" fill="none" stroke="#fff" stroke-linecap="round" stroke-width="1"/>
      <path id="Контур_81-3" data-name="Контур 81" d="M2392.689,4496.947l9.547-8.706,8.68-8.139,10.85-5.471,11.807-5.107,8.258-1.623,6.281,1.623,2.861,4.057v6.521l-2.861,6.969-6.281,3.406-5.769,3.168-5.539,3.3-3.5,4.679-4.283,6.229-5.267,5.214" transform="translate(-2022.592 -6.027)" fill="none" stroke="#fff" stroke-linecap="round" stroke-width="1"/>
      <path id="Контур_82-3" data-name="Контур 82" d="M2432.781,4506.317a4.077,4.077,0,0,0,1.052,2.871,6.6,6.6,0,0,0,3.644,2.015c1.732.5,1.463.5,3.283,0s1.952-.793,4-2.015a18.439,18.439,0,0,0,4.188-2.871,29.372,29.372,0,0,0,3.794-4.14c1.573-1.823.961-1.918,2.5-3.153s1.93-.467,3.652-1.786a20.249,20.249,0,0,0,3.236-3.488" transform="translate(-2024.911 -7.522)" fill="none" stroke="#fff" stroke-linecap="round" stroke-width="1"/>
    </g>
  </g>
</svg>
