<svg xmlns="http://www.w3.org/2000/svg" width="30.891" height="32.884" viewBox="0 0 30.891 32.884">
  <g id="Сгруппировать_130" data-name="Сгруппировать 130" transform="translate(-418.002 -2860.831)">
    <path id="Контур_61" data-name="Контур 61" d="M257.643,218.2c3.205-.626,6.782-2.816,9.5-1.011s1.777,6,2.713,9.112c.906,3.013,3.489,5.769,2.678,8.809-.818,3.066-4.147,4.556-6.733,6.394-2.556,1.816-5.038,3.924-8.162,4.192-3.279.281-6.975-.317-9.247-2.7-2.191-2.3-1.443-5.949-1.986-9.078-.446-2.575-1.665-5.093-.906-7.594.766-2.524,2.805-4.417,5-5.885,2.125-1.423,4.631-1.751,7.141-2.241" transform="translate(175.739 2647.438)" fill="none" stroke="#fff" stroke-width="1"/>
    <path id="Контур_64" data-name="Контур 64" d="M258.794,218.364c3.5-.685,7.412-3.078,10.387-1.105,2.959,1.962,1.942,6.559,2.965,9.958.991,3.293,3.813,6.306,2.927,9.628-.894,3.351-4.532,4.98-7.359,6.989-2.793,1.985-5.506,4.289-8.921,4.582-3.584.307-7.623-.346-10.106-2.949-2.4-2.511-1.577-6.5-2.17-9.921-.488-2.814-1.819-5.566-.99-8.3.838-2.759,3.066-4.828,5.462-6.432,2.323-1.555,5.061-1.913,7.8-2.45" transform="translate(173.189 2644.718)" fill="none" stroke="#fff" stroke-width="1"/>
    <path id="Контур_62" data-name="Контур 62" d="M255.363,217.959c2.615-.536,5.533-2.412,7.754-.866s1.45,5.139,2.214,7.8c.739,2.58,2.847,4.941,2.185,7.544-.667,2.625-3.383,3.9-5.494,5.476-2.085,1.555-4.111,3.36-6.659,3.59-2.676.241-5.691-.271-7.544-2.311-1.788-1.968-1.177-5.095-1.62-7.774-.364-2.2-1.358-4.361-.739-6.5a9.781,9.781,0,0,1,4.077-5.039c1.734-1.218,3.778-1.5,5.826-1.919" transform="translate(178.264 2649.541)" fill="none" stroke="#fff" stroke-width="1"/>
    <path id="Контур_63" data-name="Контур 63" d="M253.4,217.72c2.106-.449,4.456-2.017,6.245-.724s1.168,4.3,1.783,6.527c.6,2.158,2.292,4.133,1.76,6.31-.537,2.2-2.725,3.264-4.424,4.58-1.679,1.3-3.31,2.811-5.363,3-2.155.2-4.583-.227-6.076-1.933-1.44-1.646-.948-4.261-1.3-6.5-.293-1.844-1.094-3.648-.595-5.439a8.128,8.128,0,0,1,3.283-4.215,11.621,11.621,0,0,1,4.692-1.605" transform="translate(180.789 2652.51)" fill="none" stroke="#fff" stroke-width="1"/>
  </g>
</svg>
