<svg xmlns="http://www.w3.org/2000/svg" width="89.45" height="34.97" viewBox="0 0 89.45 34.97">
  <g id="Design_Element" data-name="Design Element" transform="translate(-240.943 -8758.499)">
    <path id="Контур_89" data-name="Контур 89" d="M2274.086,2532.034s-26.549,29.792-27.119,37.627,23.186-11.183,24.838-6.285-19.5,21.408-18.23,25.877,24.141-15.145,23.328-8-26.581,36.571-26.581,36.571" transform="translate(2862.094 6515.043) rotate(90)" fill="none" stroke="#fff" stroke-width="1"/>
    <path id="Контур_92" data-name="Контур 92" d="M2274.086,2532.034s-26.549,29.792-27.119,37.627,23.186-11.183,24.838-6.285-19.5,21.408-18.23,25.877,24.141-15.145,23.328-8-26.581,36.571-26.581,36.571" transform="translate(2859.094 6516.043) rotate(90)" fill="none" stroke="#fff" stroke-width="1"/>
    <path id="Контур_93" data-name="Контур 93" d="M2274.086,2532.034s-26.549,29.792-27.119,37.627,23.186-11.183,24.838-6.285-19.5,21.408-18.23,25.877,24.141-15.145,23.328-8-26.581,36.571-26.581,36.571" transform="translate(2862.095 6512.043) rotate(90)" fill="none" stroke="#fff" stroke-width="1"/>
  </g>
</svg>
