<svg xmlns="http://www.w3.org/2000/svg" xmlns:xlink="http://www.w3.org/1999/xlink" width="562.019" height="164.726" viewBox="0 0 562.019 164.726">
  <defs>
    <filter id="Rectangle_56" x="160.654" y="0" width="63.038" height="120.32" filterUnits="userSpaceOnUse">
      <feOffset dy="16" input="SourceAlpha"/>
      <feGaussianBlur stdDeviation="3" result="blur"/>
      <feFlood flood-opacity="0.161"/>
      <feComposite operator="in" in2="blur"/>
      <feComposite in="SourceGraphic"/>
    </filter>
    <clipPath id="clip-path">
      <rect id="Rectangle_52" data-name="Rectangle 52" width="46.294" height="95.321" fill="#fff"/>
    </clipPath>
    <clipPath id="clip-path-2">
      <rect id="Rectangle_51" data-name="Rectangle 51" width="46.588" height="96.214" fill="#fff"/>
    </clipPath>
    <clipPath id="clip-path-3">
      <rect id="Rectangle_54" data-name="Rectangle 54" width="12.766" height="95.321" fill="#fff"/>
    </clipPath>
    <clipPath id="clip-path-4">
      <rect id="Rectangle_53" data-name="Rectangle 53" width="12.153" height="94.189" fill="#fff"/>
    </clipPath>
    <clipPath id="clip-path-5">
      <g transform="matrix(1, 0, 0, 1, 0, 0)" filter="url(#Rectangle_56)">
        <rect id="Rectangle_56-2" data-name="Rectangle 56" width="45.038" height="95.321" fill="#fff"/>
      </g>
    </clipPath>
    <clipPath id="clip-path-6">
      <rect id="Rectangle_55" data-name="Rectangle 55" width="44.562" height="93.176" fill="#fff"/>
    </clipPath>
    <clipPath id="clip-path-7">
      <rect id="Rectangle_58" data-name="Rectangle 58" width="49.024" height="95.321" fill="#fff"/>
    </clipPath>
    <clipPath id="clip-path-8">
      <rect id="Rectangle_57" data-name="Rectangle 57" width="45.575" height="89.125" fill="#fff"/>
    </clipPath>
    <clipPath id="clip-path-9">
      <rect id="Rectangle_60" data-name="Rectangle 60" width="35.745" height="95.321" fill="#fff"/>
    </clipPath>
    <clipPath id="clip-path-10">
      <rect id="Rectangle_59" data-name="Rectangle 59" width="36.46" height="95.202" fill="#fff"/>
    </clipPath>
    <clipPath id="clip-path-11">
      <rect id="Rectangle_62" data-name="Rectangle 62" width="42.602" height="95.321" fill="#fff"/>
    </clipPath>
    <clipPath id="clip-path-12">
      <rect id="Rectangle_61" data-name="Rectangle 61" width="41.524" height="93.176" fill="#fff"/>
    </clipPath>
    <clipPath id="clip-path-13">
      <rect id="Rectangle_64" data-name="Rectangle 64" width="42.669" height="95.321" fill="#fff"/>
    </clipPath>
    <clipPath id="clip-path-14">
      <rect id="Rectangle_63" data-name="Rectangle 63" width="42.537" height="95.202" fill="#fff"/>
    </clipPath>
    <clipPath id="clip-path-16">
      <rect id="Rectangle_65" data-name="Rectangle 65" width="46.588" height="95.202" fill="#fff"/>
    </clipPath>
  </defs>
  <g id="Logo" transform="translate(-16.596 -12.492)">
    <g id="Logo-2" data-name="Logo" transform="translate(113.594 12.492)">
      <g id="Group_79" data-name="Group 79" transform="translate(0 0)" clip-path="url(#clip-path)">
        <g id="Group_78" data-name="Group 78" transform="translate(0.196 -0.086)" clip-path="url(#clip-path-2)">
          <path id="Path_1" data-name="Path 1" d="M17.573,92.554l12.5-1.922L12.989,1.356.488,3.278Z" transform="translate(-0.488 3.66)" fill="#fff"/>
          <path id="Path_2" data-name="Path 2" d="M15.88,1.946,6.713,52.854l1.25,6.52L18.381,1.612Zm5-.752L9.13,65.894l1.25,6.52,13-71.555ZM25.8.107,11.63,78.934l1.25,6.52L28.3.107Z" transform="translate(18.29 -0.107)" fill="#fff"/>
        </g>
      </g>
      <g id="Group_81" data-name="Group 81" transform="translate(53.094 0)" clip-path="url(#clip-path-3)">
        <g id="Group_80" data-name="Group 80" transform="translate(0.49 -0.086)" clip-path="url(#clip-path-4)">
          <path id="Path_3" data-name="Path 3" d="M24.239.107,21.809.443V92.866l2.431-.421ZM19.378.864,16.947,1.2V93.623l2.431-.42Zm-4.861.757-2.431.336V94.3l2.431-.336Z" transform="translate(-12.086 -0.107)" fill="#fff"/>
        </g>
      </g>
      <g id="Group_83" data-name="Group 83" transform="translate(72.656)" clip-path="url(#clip-path-5)">
        <g id="Group_82" data-name="Group 82" transform="translate(-0.121 -0.086)" clip-path="url(#clip-path-6)">
          <path id="Path_4" data-name="Path 4" d="M20.093,80.224h2.49V49.549h-2.49ZM15.114,32.816H17.6V5.175H15.114Zm0,48.146H17.6V50.2H15.114ZM20.093,31.75l2.49-.41V4.191h-2.49ZM25.072,4.191V31.34h2.49V4.191Zm0,75.377h2.49V48.81h-2.49Z" transform="translate(-15.114 12.213)" fill="#fff"/>
          <path id="Path_5" data-name="Path 5" d="M40.839,13.017a8.646,8.646,0,0,1,2.821,6.562v6.234L55.278,24.09a64.868,64.868,0,0,0-1.162-12.631,15.424,15.424,0,0,0-2.724-5.492,15.624,15.624,0,0,0-4.661-4.023A20.969,20.969,0,0,0,33.785.55L15.114,3.256V14.821l18.92-2.789A9.137,9.137,0,0,1,40.839,13.017Z" transform="translate(-15.114 -0.14)" fill="#fff"/>
          <path id="Path_6" data-name="Path 6" d="M31.979,13.6a28.359,28.359,0,0,1-11.452,5.331l9.709,29.035,13.111-1.886Z" transform="translate(1.216 40.612)" fill="#fff"/>
          <path id="Path_7" data-name="Path 7" d="M43.744,8.568v.738a21.669,21.669,0,0,1-1.577,10.909,10.813,10.813,0,0,1-3.552,3.469,10.955,10.955,0,0,1-4.746,1.534L15.114,27.925V39.49L33.869,36.7a23.924,23.924,0,0,0,9.314-3.026,23.644,23.644,0,0,0,7.283-6.489A33.157,33.157,0,0,0,55.2,7.42V6.845Z" transform="translate(-15.114 20.222)" fill="#fff"/>
        </g>
      </g>
      <g id="Group_85" data-name="Group 85" transform="translate(124.493)" clip-path="url(#clip-path-7)">
        <g id="Group_84" data-name="Group 84" transform="translate(0.416 -0.086)" clip-path="url(#clip-path-8)">
          <path id="Path_8" data-name="Path 8" d="M54.972.107l-11.452,1.7L26.459,89.232l11.528-1.7Z" transform="translate(-26.459 -0.107)" fill="#fff"/>
          <path id="Path_9" data-name="Path 9" d="M30.936,27.935,55.069,24.3,52.84,13.789,33.089,16.726Z" transform="translate(-12.951 41.17)" fill="#fff"/>
          <path id="Path_10" data-name="Path 10" d="M50.932,63.04l-2.306.386,2.921,13.991h2.305ZM43.246,47.58,36.022,13.723l-1.153,5.952L40.71,47.812Zm4.611-.7L38.327,1.9,37.175,7.849,44.86,47.116ZM32.486,31.425,36.1,48.817H38.4L33.716,25.627ZM44.015,64.276,46.7,78.113H49.01L46.7,63.735Zm-4.535.7,2.844,13.991,2.306-.386-2.844-14.3Z" transform="translate(-8.276 5.292)" fill="#fff"/>
        </g>
      </g>
      <g id="Group_87" data-name="Group 87" transform="translate(180.317 0)" clip-path="url(#clip-path-9)">
        <g id="Group_86" data-name="Group 86" transform="translate(-2.02 -0.086)" clip-path="url(#clip-path-10)">
          <path id="Path_11" data-name="Path 11" d="M74.519,19.512l-36.46,5.27V36.767l36.46-5.27Z" transform="translate(-38.059 58.434)" fill="#fff"/>
          <path id="Path_12" data-name="Path 12" d="M38.059,80.093h2.6V1.637l-2.6.34Zm5.209-.765h2.6V.872l-2.6.34ZM48.476.107v78.2l2.6-.425V.107Z" transform="translate(-38.059 -0.107)" fill="#fff"/>
        </g>
      </g>
      <g id="Group_89" data-name="Group 89" transform="translate(222.862)" clip-path="url(#clip-path-11)">
        <g id="Group_88" data-name="Group 88" transform="translate(0.718 -0.086)" clip-path="url(#clip-path-12)">
          <path id="Path_13" data-name="Path 13" d="M66.849,80.358a7.75,7.75,0,0,1-4.3-1.33c-2.813-2.078-2.482-6.068-2.482-9.476V26.829a15.017,15.017,0,0,1,2.482-11.387,9.834,9.834,0,0,1,4.3-2.66V.231a26.39,26.39,0,0,0-5.873,2.161,24.893,24.893,0,0,0-11.911,13.3,27.977,27.977,0,0,0-1.406,8.977V73.126a29.059,29.059,0,0,0,.827,8.312,16.571,16.571,0,0,0,12.49,11.3,23.051,23.051,0,0,0,5.873.416Z" transform="translate(-47.656 0.267)" fill="#fff"/>
          <path id="Path_14" data-name="Path 14" d="M66.078,77.189a20.28,20.28,0,0,0,1.406-8.312V23.162a25.045,25.045,0,0,0-1.406-10.889,11.84,11.84,0,0,0-8.271-6.649,18.2,18.2,0,0,0-4.55-.416V7.7a11.786,11.786,0,0,1,7.527,2.161A13.085,13.085,0,0,1,65,21.832V65.469a8.383,8.383,0,0,0,0,1.413,17.594,17.594,0,0,1-4.3,13.964,15.694,15.694,0,0,1-7.527,4.322v2.494a17.4,17.4,0,0,0,4.218-1.579A18.824,18.824,0,0,0,66.078,77.189ZM62.6,67.381a9.038,9.038,0,0,1,0-1.5V22.164A11.424,11.424,0,0,0,59.3,11.941,10.469,10.469,0,0,0,53.34,10.2v2.494a7.008,7.008,0,0,1,4.3,1.413c2.895,1.995,2.482,6.068,2.482,9.392V66.633A14.936,14.936,0,0,1,57.642,78.1a10,10,0,0,1-4.3,2.577v2.493A12.894,12.894,0,0,0,59.3,79.683a15.1,15.1,0,0,0,3.309-12.3ZM70.876,9.2A15.971,15.971,0,0,0,59.131.637a19.843,19.843,0,0,0-5.873-.5V2.632a20.332,20.332,0,0,1,5.046,0,14.238,14.238,0,0,1,10.092,7.813,27.3,27.3,0,0,1,1.572,11.886V68.877a22.957,22.957,0,0,1-1.655,9.06A21.9,21.9,0,0,1,58.3,88.41a19.384,19.384,0,0,1-5.046,1.828v2.577a22.861,22.861,0,0,0,5.873-2.161A24.882,24.882,0,0,0,70.545,78.685a24.375,24.375,0,0,0,1.737-10.223v-44.3A33.4,33.4,0,0,0,70.628,9.53Z" transform="translate(-30.925 -0.138)" fill="#fff"/>
        </g>
      </g>
      <g id="Group_91" data-name="Group 91" transform="translate(272.262)" clip-path="url(#clip-path-13)">
        <g id="Group_90" data-name="Group 90" transform="translate(-0.357 -0.086)" clip-path="url(#clip-path-14)">
          <path id="Path_15" data-name="Path 15" d="M70.022,15.634a23.363,23.363,0,0,0-1.864,11.709V71.89A16.138,16.138,0,0,0,70.192,81.9a7.453,7.453,0,0,0,6.694,2.715V81.986A4.74,4.74,0,0,1,72.4,80.2,16.139,16.139,0,0,1,70.7,70.532v-42a26.251,26.251,0,0,1,1.525-11.964A6.864,6.864,0,0,1,76.886,13V10.458a9.661,9.661,0,0,0-6.864,5.176Zm-2.711-4.5a15.95,15.95,0,0,0-3.135,5.43,19.711,19.711,0,0,0-1.1,6.364V75.368a19.8,19.8,0,0,0,1.1,7.382,10.6,10.6,0,0,0,8.473,6.7,21.771,21.771,0,0,0,4.067,0V86.993a9.821,9.821,0,0,1-9.066-3.479,15.8,15.8,0,0,1-2.034-10.437v-47.6a17.67,17.67,0,0,1,1.864-10.521,13.813,13.813,0,0,1,9.406-6.873V5.367a17.866,17.866,0,0,0-4.745,1.867A16.95,16.95,0,0,0,67.311,11.137Zm2.966-8.485a25.433,25.433,0,0,0-6.525,5.43,21.807,21.807,0,0,0-4.237,7.127,22.929,22.929,0,0,0-1.525,8.485V75.962a24.039,24.039,0,0,0,1.44,9.248,15,15,0,0,0,12.117,9.418,28.08,28.08,0,0,0,5.338,0V92.083a28.477,28.477,0,0,1-4.66,0A12.882,12.882,0,0,1,61.8,84.447a22,22,0,0,1-1.271-8.485V23.1a19.37,19.37,0,0,1,1.356-7.382,19.861,19.861,0,0,1,3.644-6.194,21.7,21.7,0,0,1,5.677-4.582,23.794,23.794,0,0,1,5.677-2.121V.276a24.718,24.718,0,0,0-6.609,2.461Z" transform="translate(-57.989 0.403)" fill="#fff"/>
          <path id="Path_16" data-name="Path 16" d="M85.683,10.056,62.89,13.365V25.329L85.683,22.02Z" transform="translate(-43.147 29.908)" fill="#fff"/>
          <path id="Path_17" data-name="Path 17" d="M81.464,9.727A16.357,16.357,0,0,0,69.686.648,20.4,20.4,0,0,0,63.67.139V12.866a7.2,7.2,0,0,1,4.406,1.442,7.217,7.217,0,0,1,2.542,6.364v6.7l12.541-1.782v-6.7A20.3,20.3,0,0,0,81.464,9.727Z" transform="translate(-40.793 -0.139)" fill="#fff"/>
          <path id="Path_18" data-name="Path 18" d="M70.618,15.7V30.638a10.02,10.02,0,0,1-2.542,7.212,10.249,10.249,0,0,1-4.406,2.63V53.293a23.433,23.433,0,0,0,6.016-2.206A24.95,24.95,0,0,0,83.159,28.771V13.837Z" transform="translate(-40.793 41.315)" fill="#fff"/>
        </g>
      </g>
      <g id="Group_93" data-name="Group 93" transform="translate(321.73)" clip-path="url(#clip-path)">
        <g id="Group_92" data-name="Group 92" transform="translate(-0.49 -0.086)" clip-path="url(#clip-path-16)">
          <path id="Path_19" data-name="Path 19" d="M72.819,50.333h2.5V17.248h-2.5Zm9.918-34.9V48.514l2.5-.414V15.015Zm-5,34.16,2.5-.413V16.09h-2.5Z" transform="translate(-55.736 44.868)" fill="#fff"/>
          <path id="Path_20" data-name="Path 20" d="M81.021,51.306,96.439.107l-12.5,1.82L74.77,32.365Z" transform="translate(-49.85 -0.107)" fill="#fff"/>
          <path id="Path_21" data-name="Path 21" d="M85.568,54.94l12.5-1.82-17-51.778-12.5,1.82Z" transform="translate(-68.566 3.62)" fill="#fff"/>
        </g>
      </g>
    </g>
    <path id="Path_22" data-name="Path 22" d="M0,25.751a.9.9,0,0,1,.072-.4q.072-.18.5-.18H13.027q.432.036.864.108a2.335,2.335,0,0,1,.756.252.555.555,0,0,1,.324.5.958.958,0,0,1-.36.792,2.485,2.485,0,0,1-.936.5,6.531,6.531,0,0,1-1.3.252q-.756.072-1.511.072a20.3,20.3,0,0,1-2.159-.108q-1.044-.072-1.511-.072-.252,0-.828.036-.612.036-1.4.036-.828,0-1.691-.072a9.95,9.95,0,0,1-1.583-.252,3.2,3.2,0,0,1-1.224-.54A1.127,1.127,0,0,1,0,25.751Zm26.989-2.3a13.262,13.262,0,0,1,.252-2.2,31.225,31.225,0,0,1,.72-3.095q.468-1.655,1.116-3.383a22.321,22.321,0,0,1,1.439-3.131,9.22,9.22,0,0,1,1.727-2.267,2.683,2.683,0,0,1,1.907-.9,1.961,1.961,0,0,1,1.08.324,3.661,3.661,0,0,1,.9.828,3.279,3.279,0,0,1,.648,1.008,2.578,2.578,0,0,1,.252,1.008,4.728,4.728,0,0,1-.4,1.763,20.35,20.35,0,0,1-1.008,2.087q-.612,1.152-1.331,2.411-.684,1.26-1.3,2.627a19.023,19.023,0,0,0-1.008,2.843,10.215,10.215,0,0,0-.432,2.951,19.579,19.579,0,0,0,.108,2.087,10.275,10.275,0,0,0,.324,1.943,8.007,8.007,0,0,0,.792,1.727,5.512,5.512,0,0,0,1.367,1.439v.684q-.036.18-.288.18a3.07,3.07,0,0,1-1.8-.612,9,9,0,0,1-1.655-1.655A16.847,16.847,0,0,1,29,29.889q-.612-1.223-1.08-2.447a23.237,23.237,0,0,1-.684-2.267A8.028,8.028,0,0,1,26.989,23.448ZM43.11,37.266V34.387q0-3.347.288-6.693L43.9,21q.288-3.347.432-6.693a62.3,62.3,0,0,0-.072-6.693,2.052,2.052,0,0,1,.468-.648,1.016,1.016,0,0,1,.684-.216,9.3,9.3,0,0,1,3.167.432,7.222,7.222,0,0,1,2.3,1.691A13.5,13.5,0,0,1,52.9,11.68a12.312,12.312,0,0,1,1.044,4.93,19.518,19.518,0,0,0,1.223,6.01q1.044,2.7,1.871.288,1.727-6.657,1.907-7.953t.36-2.447q.144-1.152.324-2.015.144-.864.18-1.152a6.262,6.262,0,0,1,.108-.684q.108-.54.216-1.259.144-.72.288-1.367a9.9,9.9,0,0,1,.252-1.008q.107-.432.252-1.08a7.6,7.6,0,0,1,.324-1.224,3.44,3.44,0,0,1,.576-1.008,1.026,1.026,0,0,1,.864-.432,3.033,3.033,0,0,1,1.691.468,3.923,3.923,0,0,1,1.151,1.116,5.192,5.192,0,0,1,.684,1.583,7.107,7.107,0,0,1,.216,1.727q0,.72-.036,2.159-.072,1.439-.216,3.347-.144,1.871-.36,4.066T65.242,20.1q-.324,2.159-.792,4.174a29.2,29.2,0,0,1-1.044,3.563,10.293,10.293,0,0,1-1.331,2.483,2.189,2.189,0,0,1-1.691.9,5.871,5.871,0,0,1-2.663-.612,8.851,8.851,0,0,1-2.2-1.547,15.6,15.6,0,0,1-1.763-2.015,20.408,20.408,0,0,1-2.3-4.174h-.288a7.713,7.713,0,0,0-.18,1.26q-.036.864-.108,2.015t-.18,2.519q-.108,1.367-.288,2.735t-.432,2.627a12.192,12.192,0,0,1-.72,2.231,4.729,4.729,0,0,1-1.008,1.583,1.989,1.989,0,0,1-1.4.576h-1.08a7.287,7.287,0,0,1-1.008-.144,4.034,4.034,0,0,1-.9-.324A2.547,2.547,0,0,1,43.11,37.266ZM64.342,24.6a7.212,7.212,0,0,1,.108-1.259q.072-.576.18-1.152t.216-1.115a8.172,8.172,0,0,0,.072-1.08,1.968,1.968,0,0,0-.252-1.008,3.7,3.7,0,0,0-.648-.864q-.4-.36-.828-.72t-.827-.756a3.1,3.1,0,0,1-.648-.828,1.962,1.962,0,0,1-.252-1.008A4.785,4.785,0,0,1,62,12.652a8.6,8.6,0,0,1,1.4-2.087A13.608,13.608,0,0,1,65.421,8.73a19.307,19.307,0,0,1,2.34-1.511,14.81,14.81,0,0,1,2.447-.972,7.607,7.607,0,0,1,2.2-.36A11.853,11.853,0,0,1,78.484,7.47a12.206,12.206,0,0,1,4.354,4.21,11.2,11.2,0,0,1,1.223,2.843,11.463,11.463,0,0,1,.432,3.167,16.184,16.184,0,0,1-.288,2.879,18.169,18.169,0,0,1-.827,3.167,20.048,20.048,0,0,1-1.439,3.095A12.279,12.279,0,0,1,80,29.493a10.406,10.406,0,0,1-2.519,1.871,6.6,6.6,0,0,1-3.058.72,13.979,13.979,0,0,1-3.527-.468,11.369,11.369,0,0,1-3.239-1.331,8.174,8.174,0,0,1-2.375-2.339A5.894,5.894,0,0,1,64.342,24.6ZM70.1,26.614v.4c.024.192.048.384.072.576a3.533,3.533,0,0,0,.18.54.346.346,0,0,0,.324.216,3.578,3.578,0,0,0,2.2-.792,9.988,9.988,0,0,0,1.871-2.087,18.179,18.179,0,0,0,1.547-2.879q.683-1.583,1.187-3.167a26.168,26.168,0,0,0,.72-2.951,12.839,12.839,0,0,0,.252-2.231v-.9a8.736,8.736,0,0,0-.072-1.08A9.844,9.844,0,0,0,78.16,11.1a4.505,4.505,0,0,0-.4-1.044,2.333,2.333,0,0,0-.648-.72,1.608,1.608,0,0,0-.972-.288,6.646,6.646,0,0,0-.935.072,5.007,5.007,0,0,0-1.044.18,6.729,6.729,0,0,0-.971.36,2.716,2.716,0,0,0-.792.54l-3.167,3.167a.816.816,0,0,0-.252.432,2.594,2.594,0,0,0-.036.432.88.88,0,0,0,.252.576,5.718,5.718,0,0,0,.684.576,9.761,9.761,0,0,0,.9.576q.5.288.972.576t.9.576a2.854,2.854,0,0,1,.611.576v.288a4,4,0,0,1-.5,1.835q-.468.972-1.08,2.051-.576,1.08-1.08,2.267A6.3,6.3,0,0,0,70.1,26.614Zm12.559-1.727V20.281q0-.36-.036-1.3-.036-.9,0-2.087.035-1.223.144-2.483a16.259,16.259,0,0,1,.432-2.339,4.437,4.437,0,0,1,.792-1.763,1.513,1.513,0,0,1,1.26-.684,7.031,7.031,0,0,1,.9.072,9.707,9.707,0,0,1,1.151.216,11.742,11.742,0,0,1,1.223.36,6.786,6.786,0,0,1,1.115.5,3.57,3.57,0,0,1,.792.648,1.15,1.15,0,0,1,.288.792,15.891,15.891,0,0,1-.18,2.375q-.18,1.188-.4,2.375t-.4,2.375a15.894,15.894,0,0,0-.18,2.375v4.03a3.372,3.372,0,0,0,.036.468,1.473,1.473,0,0,0,.072.468,1.062,1.062,0,0,0,.288.36.727.727,0,0,0,.468.144,1.675,1.675,0,0,0,1.259-.648,7.96,7.96,0,0,0,1.116-1.727A18.335,18.335,0,0,0,93.814,22.3q.432-1.4.828-2.915.4-1.547.719-3.059.324-1.547.54-2.843.252-1.331.4-2.339t.216-1.511a.28.28,0,0,1,.18-.288.964.964,0,0,1,.36-.072,2.614,2.614,0,0,1,.432.036.321.321,0,0,1,.144.036,6.231,6.231,0,0,1,2.95.648,5.717,5.717,0,0,1,2.016,1.763,8.266,8.266,0,0,1,1.3,2.555,16.11,16.11,0,0,1,.648,3.167,32.466,32.466,0,0,1,.252,3.455q.036,1.8,0,3.491-.072,1.691-.144,3.239-.108,1.511-.108,2.7a2.145,2.145,0,0,1-.216.972,2.333,2.333,0,0,1-.648.72,3.083,3.083,0,0,1-.827.468,2.827,2.827,0,0,1-.9.144,3.777,3.777,0,0,1-1.331-.216,3.537,3.537,0,0,1-.972-.612,4.981,4.981,0,0,1-.684-.756,8.35,8.35,0,0,1-.432-.756,5.553,5.553,0,0,0-.324-.576q-.108-.252-.288-.252h-.288a8.3,8.3,0,0,1-1.008,1.116A8.033,8.033,0,0,1,95.4,31.616a6.868,6.868,0,0,1-1.439.756,4.218,4.218,0,0,1-1.511.288,14.02,14.02,0,0,1-3.743-.468,8.925,8.925,0,0,1-2.987-1.475,7.681,7.681,0,0,1-2.051-2.411A9.358,9.358,0,0,1,82.658,24.887Zm20.907,12.379V34.387q0-3.347.288-6.693.252-3.347.5-6.693.288-3.347.432-6.693a62.217,62.217,0,0,0-.072-6.693,2.049,2.049,0,0,1,.468-.648,1.016,1.016,0,0,1,.684-.216,9.3,9.3,0,0,1,3.167.432,7.227,7.227,0,0,1,2.3,1.691,13.512,13.512,0,0,1,2.015,2.807,12.316,12.316,0,0,1,1.043,4.93,19.523,19.523,0,0,0,1.223,6.01q1.044,2.7,1.871.288,1.728-6.657,1.907-7.953t.36-2.447q.144-1.152.324-2.015.144-.864.18-1.152a6.381,6.381,0,0,1,.108-.684q.108-.54.216-1.259.144-.72.288-1.367a9.913,9.913,0,0,1,.252-1.008q.108-.432.252-1.08A7.73,7.73,0,0,1,121.7,2.72a3.468,3.468,0,0,1,.576-1.008,1.026,1.026,0,0,1,.864-.432,3.035,3.035,0,0,1,1.692.468,3.924,3.924,0,0,1,1.151,1.116,5.19,5.19,0,0,1,.684,1.583,7.106,7.106,0,0,1,.216,1.727q0,.72-.036,2.159-.072,1.439-.216,3.347-.144,1.871-.36,4.066T125.7,20.1q-.324,2.159-.792,4.174a29.205,29.205,0,0,1-1.043,3.563,9.531,9.531,0,0,1-1.368,2.483,2.09,2.09,0,0,1-1.655.9,5.871,5.871,0,0,1-2.663-.612,8.847,8.847,0,0,1-2.195-1.547,15.59,15.59,0,0,1-1.763-2.015,20.39,20.39,0,0,1-2.3-4.174h-.288a7.755,7.755,0,0,0-.18,1.26q-.036.864-.108,2.015t-.18,2.519q-.108,1.367-.288,2.735t-.432,2.627a12.157,12.157,0,0,1-.719,2.231,4.73,4.73,0,0,1-1.008,1.583,1.99,1.99,0,0,1-1.4.576h-1.08a7.3,7.3,0,0,1-1.008-.144,4.039,4.039,0,0,1-.9-.324A2.552,2.552,0,0,1,103.566,37.266Zm24.974-4.318q0-.432.036-.864a2.36,2.36,0,0,1,.252-.864q.863-1.619,1.835-3.383.936-1.763,1.763-3.671a23.882,23.882,0,0,0,1.331-3.886,15.256,15.256,0,0,0,.54-4.03V14.523a2.9,2.9,0,0,0-.827-1.331q-.612-.576-1.26-1.116a10.214,10.214,0,0,1-1.151-1.116,1.961,1.961,0,0,1-.5-1.331l.288-.288h.288a11.228,11.228,0,0,1,1.763,1.116,19.566,19.566,0,0,1,1.692,1.511,16.4,16.4,0,0,1,1.583,1.835,11.207,11.207,0,0,1,1.259,2.015,12.289,12.289,0,0,1,.864,2.123,6.9,6.9,0,0,1,.324,2.051,9.955,9.955,0,0,1-.18,1.691,16.862,16.862,0,0,1-.468,2.159q-.324,1.116-.792,2.375a20.666,20.666,0,0,1-1.008,2.375,24.488,24.488,0,0,1-1.223,2.231,12.8,12.8,0,0,1-1.439,1.835,6.264,6.264,0,0,1-1.547,1.259,3.4,3.4,0,0,1-1.691.468,1.584,1.584,0,0,1-.648-.144,2.638,2.638,0,0,1-.54-.36,1.8,1.8,0,0,1-.4-.468A.954.954,0,0,1,128.54,32.948Zm25.766-1.727a1.239,1.239,0,0,1,.432-1.008,3.255,3.255,0,0,1,1.043-.5,7.446,7.446,0,0,1,1.331-.18q.684-.036,1.223-.036h1.439a2.626,2.626,0,0,1,.5.216.9.9,0,0,1,.252.288,1.315,1.315,0,0,1,.108.4v.54a2.825,2.825,0,0,1-.611,1.835,2.057,2.057,0,0,1-1.692.756,7.932,7.932,0,0,1-1.223-.108,4.774,4.774,0,0,1-1.331-.4,3.673,3.673,0,0,1-1.043-.72A1.464,1.464,0,0,1,154.305,31.22Zm-1.151-14.682a1.125,1.125,0,0,1,.431-.9,2.839,2.839,0,0,1,1.008-.5,4.445,4.445,0,0,1,1.223-.252,10.091,10.091,0,0,1,1.079-.072,5.928,5.928,0,0,1,.9.072,2.073,2.073,0,0,1,.827.252,1.768,1.768,0,0,1,.612.5,1.535,1.535,0,0,1,.252.9,2.147,2.147,0,0,1-.216.9,3.334,3.334,0,0,1-.5.828,3.476,3.476,0,0,1-.719.612,1.7,1.7,0,0,1-.864.252,7.925,7.925,0,0,1-1.223-.108,4.13,4.13,0,0,1-1.331-.432,3.1,3.1,0,0,1-1.044-.792A1.869,1.869,0,0,1,153.154,16.538Zm18.784,8.924q0-2.591.144-5.038t.144-5.038V12.22a1.656,1.656,0,0,0-.792-.612,11.251,11.251,0,0,0-1.331-.4q-.72-.216-1.512-.4a11.869,11.869,0,0,1-1.475-.432,4.6,4.6,0,0,1-1.08-.648,1.266,1.266,0,0,1-.432-.972q4.211-.972,7.629-1.727,1.439-.324,2.879-.612,1.439-.324,2.627-.576,1.152-.252,1.979-.4a7.779,7.779,0,0,1,1.007-.144,8.94,8.94,0,0,1,1.188.108,13.331,13.331,0,0,1,1.4.36,4.846,4.846,0,0,1,1.223.612,1.164,1.164,0,0,1,.5.936,1.216,1.216,0,0,1-.324.9,2.329,2.329,0,0,1-.827.576,5.862,5.862,0,0,1-1.08.288q-.576.144-1.116.252a5.739,5.739,0,0,0-.972.324.986.986,0,0,0-.576.54,7.455,7.455,0,0,0-.4,1.871q-.108,1.3-.18,2.987t-.107,3.635q-.036,1.979-.108,3.922-.073,1.979-.252,3.778a25.671,25.671,0,0,1-.5,3.2,6.986,6.986,0,0,1-.864,2.231,1.568,1.568,0,0,1-1.331.828,6.68,6.68,0,0,1-2.807-.5,4.292,4.292,0,0,1-1.655-1.475,6.179,6.179,0,0,1-.792-2.267A18.531,18.531,0,0,1,171.938,25.463ZM192.2,36.978V34.963a27.531,27.531,0,0,1,.144-2.807l.288-2.807q.18-1.4.288-2.807a27.531,27.531,0,0,0,.144-2.807.763.763,0,0,0-.863-.864,1.392,1.392,0,0,0-1.08.432,2.611,2.611,0,0,0-.612,1.08,10.637,10.637,0,0,0-.288,1.511q-.072.828-.144,1.727t-.18,1.727a5.836,5.836,0,0,1-.4,1.547,3,3,0,0,1-.792,1.08,2.315,2.315,0,0,1-1.4.4,4.232,4.232,0,0,1-1.008-.144,7.191,7.191,0,0,1-1.188-.468,4.859,4.859,0,0,1-1.008-.72,1.886,1.886,0,0,1-.54-.972V27.478q0-2.375.216-4.786.252-2.411.576-4.858.324-2.411.684-4.858.324-2.411.54-4.786l.18-.36a.656.656,0,0,1,.216-.288.847.847,0,0,1,.288-.18,2.471,2.471,0,0,1,.468-.036h.288q.863.324,1.583.612a9.789,9.789,0,0,1,1.331.648,6.98,6.98,0,0,1,1.188.828,5.746,5.746,0,0,1,1.08,1.08l.288.576v5.758q0,.432.18.5a1.056,1.056,0,0,0,.4.072,1.645,1.645,0,0,0,1.368-.72,6.1,6.1,0,0,0,.935-1.943,17.86,17.86,0,0,0,.648-2.7q.252-1.547.468-3.131.252-1.583.468-3.131a21.575,21.575,0,0,1,.611-2.7,7.363,7.363,0,0,1,.864-1.943,1.494,1.494,0,0,1,1.259-.72,3.664,3.664,0,0,1,.972.18,10.508,10.508,0,0,1,1.331.5q.684.324,1.4.72a11.1,11.1,0,0,1,1.3.9,5.382,5.382,0,0,1,.972,1.008,1.724,1.724,0,0,1,.36,1.008,21.363,21.363,0,0,1-.468,4.39q-.468,2.231-1.116,4.5-.648,2.231-1.331,4.426T201.986,22.3q-.108.468-.252,1.439-.108.972-.324,2.2-.216,1.259-.468,2.7-.252,1.4-.612,2.843-.359,1.4-.792,2.7a12.924,12.924,0,0,1-1.044,2.3,5.5,5.5,0,0,1-1.259,1.619,2.39,2.39,0,0,1-1.583.612,6.648,6.648,0,0,1-.936-.072,5.171,5.171,0,0,1-1.008-.252,3.007,3.007,0,0,1-.9-.5A2.4,2.4,0,0,1,192.2,36.978Zm8.852-14.394V22.3l.288-.288a6.5,6.5,0,0,0,2.807-.72A4.478,4.478,0,0,0,205.8,19.6a7.392,7.392,0,0,0,.792-2.483,21.449,21.449,0,0,0,.216-3.167V12.508a2.456,2.456,0,0,0-.684-.576q-.5-.252-1.115-.5-.611-.288-1.259-.576a10.987,10.987,0,0,1-1.188-.612,5.2,5.2,0,0,1-.864-.684,1.1,1.1,0,0,1-.36-.792q0-.432.648-.828a8.175,8.175,0,0,1,1.583-.756q.936-.36,2.087-.684t2.2-.54q1.08-.252,1.907-.4.792-.18,1.08-.252a6.925,6.925,0,0,1,.828-.18,14.283,14.283,0,0,1,1.475-.252q.828-.144,1.727-.288.935-.144,1.763-.288l1.439-.252q.648-.144.828-.18a3.247,3.247,0,0,0,.54-.108q.431-.072.9-.18.5-.108.935-.216a3.886,3.886,0,0,1,.5-.072h.288a1.579,1.579,0,0,1,.647.144,1.946,1.946,0,0,1,.54.432,1.741,1.741,0,0,1,.4.648,2.117,2.117,0,0,1,.144.792,1.733,1.733,0,0,1-.468,1.223,4.132,4.132,0,0,1-1.223.936q-.756.36-1.655.684-.9.288-1.763.576-.863.252-1.583.54a3.2,3.2,0,0,0-1.08.648,2.688,2.688,0,0,0-.468.864q-.252.648-.5,1.547-.252.864-.5,1.907-.217,1.044-.432,2.015-.18.972-.288,1.835a10.754,10.754,0,0,0-.108,1.331,4.6,4.6,0,0,0,1.691-.324,13.624,13.624,0,0,0,1.62-.684q.828-.4,1.62-.684a4.6,4.6,0,0,1,1.691-.324,1.023,1.023,0,0,1,.756.288,2.53,2.53,0,0,1,.54.684,2.218,2.218,0,0,1,.324.864,3.194,3.194,0,0,1,.108.756,2.916,2.916,0,0,1-.72,1.979,7.172,7.172,0,0,1-1.871,1.439,16.364,16.364,0,0,1-2.447,1.08q-1.3.432-2.411.792t-1.871.684q-.755.288-.756.648v3.167a.441.441,0,0,0,.108.324.483.483,0,0,0,.216.18.642.642,0,0,0,.288.072h.252a5.778,5.778,0,0,0,1.692-.252,10.027,10.027,0,0,0,1.547-.72,16.667,16.667,0,0,0,1.511-.9q.72-.468,1.439-.9a7.425,7.425,0,0,1,1.476-.684,4.309,4.309,0,0,1,1.547-.288,1.607,1.607,0,0,1,.971.288,2.573,2.573,0,0,1,.72.72,4.28,4.28,0,0,1,.468.936,3.422,3.422,0,0,1,.144.936v.864a20.99,20.99,0,0,1-1.619,1.655,11.041,11.041,0,0,1-1.836,1.367,10.873,10.873,0,0,1-2.159.936,7.935,7.935,0,0,1-2.447.36,8.765,8.765,0,0,1-1.979-.252,13.312,13.312,0,0,1-2.2-.648,18.976,18.976,0,0,1-2.123-1.008,14.181,14.181,0,0,1-1.908-1.331,9.412,9.412,0,0,1-1.511-1.583,5.272,5.272,0,0,1-.9-1.8,9.911,9.911,0,0,0-.72-1.8,6.043,6.043,0,0,0-.684-.972,3.28,3.28,0,0,0-.72-.5q-.324-.18-.719-.4a4.306,4.306,0,0,1-.828-.612A5.242,5.242,0,0,1,201.05,22.584Zm50.775,5.182a2.179,2.179,0,0,0-1.008-.54,12.1,12.1,0,0,0-1.476-.36,10.814,10.814,0,0,0-1.512-.18q-.72-.072-1.151-.072a1.961,1.961,0,0,0-1.331.468,4.257,4.257,0,0,0-.9,1.116,13.42,13.42,0,0,0-.684,1.439,8.136,8.136,0,0,1-.756,1.439,4.131,4.131,0,0,1-.972,1.152,2.177,2.177,0,0,1-1.4.432,4.83,4.83,0,0,1-.863-.072,2.331,2.331,0,0,1-.72-.252,1.932,1.932,0,0,1-.54-.54,1.776,1.776,0,0,1-.18-.864,8.562,8.562,0,0,1,.324-1.691q.359-1.26.9-3.023t1.259-3.85q.72-2.087,1.512-4.246.755-2.123,1.511-4.1.756-2.015,1.4-3.563t1.08-2.483q.468-.936.611-.936a3.271,3.271,0,0,1,.864.108q.36.072.756.18t.756.216a4.62,4.62,0,0,0,.827.072,2.622,2.622,0,0,0,.432-.036,1.41,1.41,0,0,0,.288-.108.142.142,0,0,0,.108-.144V2.144a.7.7,0,0,1,.4-.648,1.512,1.512,0,0,1,.792-.216,8.742,8.742,0,0,1,3.382.54,4.337,4.337,0,0,1,1.907,1.439,6.748,6.748,0,0,1,.972,2.267q.324,1.331.648,2.951.216.972.4,1.727.216.756.4,1.439.144.684.252,1.439.073.756.072,1.727,0,2.591-.108,5.182-.144,2.591-.324,5.182l-.288,5.182q-.145,2.591-.144,5.182a3.092,3.092,0,0,1-.18,1.044,3.555,3.555,0,0,1-.54.936,2.367,2.367,0,0,1-.828.648,2.093,2.093,0,0,1-1.008.252,4.7,4.7,0,0,1-2.375-.54,4.453,4.453,0,0,1-1.476-1.439,6.154,6.154,0,0,1-.755-2.051,14.376,14.376,0,0,1-.324-2.3q-.072-1.188-.036-2.3Q251.825,28.629,251.826,27.766Zm-4.282-4.318a.934.934,0,0,0,.432.828,2.781,2.781,0,0,0,.972.432,4.309,4.309,0,0,0,1.115.144q.611.036.9.036.468,0,.54-.36a4.054,4.054,0,0,0,.072-.792q0-1.727-.18-3.634t-.432-3.85l-.252-.288a3.11,3.11,0,0,0-.648.756,10.793,10.793,0,0,0-.684,1.3q-.359.756-.684,1.583t-.576,1.583q-.252.756-.432,1.367A4.415,4.415,0,0,0,247.543,23.448ZM263.017,34.1v-4.03q0-1.4.072-2.771.036-1.367.072-2.7.072-1.331.108-2.7t.036-2.771V16.538a2.633,2.633,0,0,0-.9-.9q-.648-.468-1.439-.972t-1.511-.972a4.084,4.084,0,0,1-1.044-.9v-.288a1.678,1.678,0,0,1,.612-1.223,5.488,5.488,0,0,1,1.583-1.044,14.461,14.461,0,0,1,2.339-.9q1.3-.4,2.735-.72t2.879-.576q1.439-.252,2.735-.4,1.259-.144,2.267-.252,1.008-.072,1.547-.072h3.167a7.8,7.8,0,0,1,1.439.36,13.938,13.938,0,0,1,1.763.684,19.173,19.173,0,0,1,1.835.972,11.138,11.138,0,0,1,1.655,1.152,5.769,5.769,0,0,1,1.188,1.259,2.364,2.364,0,0,1,.468,1.331v.288a11.775,11.775,0,0,1-1.691,1.3q-1.152.828-2.627,1.727t-3.058,1.835q-1.548.936-2.879,1.727-1.295.792-2.159,1.367-.828.54-.827.684V22.3l.287.288q.216.072.684.252.432.216,1.007.468.576.288,1.188.576.648.324,1.188.576.576.252,1.043.468.432.18.648.252t.792.252q.576.144,1.331.4.72.216,1.512.5t1.475.612a5.6,5.6,0,0,1,1.08.684.982.982,0,0,1,.432.72.681.681,0,0,1-.18.5.977.977,0,0,1-.468.252,4.86,4.86,0,0,1-.576.108h-.5a15.888,15.888,0,0,1-3.311-.36,29.163,29.163,0,0,1-3.382-.864q-1.655-.54-3.275-1.223-1.583-.648-2.987-1.3h-.576a1.015,1.015,0,0,0-.684.216,2.048,2.048,0,0,0-.468.648q-.108,1.08-.18,2.231-.072,1.188-.18,2.411t-.288,2.447a20.518,20.518,0,0,1-.5,2.411,6.234,6.234,0,0,1-.468.792.793.793,0,0,1-.684.36,3.591,3.591,0,0,1-1.223-.252,7.136,7.136,0,0,1-1.368-.648,4.725,4.725,0,0,1-1.115-.936A2.068,2.068,0,0,1,263.017,34.1Zm5.47-19.576a1.742,1.742,0,0,0,.216.756,3.138,3.138,0,0,0,.5.864,3.419,3.419,0,0,0,.756.684,1.386,1.386,0,0,0,.827.288h.288q.216-.108.827-.5.648-.36,1.331-.828.72-.468,1.331-.9a7.16,7.16,0,0,0,.828-.648,7.83,7.83,0,0,1,.827-.468,6.5,6.5,0,0,0,.936-.648,3.107,3.107,0,0,0,.791-.792,1.579,1.579,0,0,0,.324-.972,8.631,8.631,0,0,0-1.223.144,19.04,19.04,0,0,0-1.943.36q-1.079.216-2.267.54a20.292,20.292,0,0,0-2.124.648,9.4,9.4,0,0,0-1.619.756Q268.486,14.163,268.486,14.523Zm17.021,10.94q0-2.591.144-5.038t.144-5.038V12.22a1.662,1.662,0,0,0-.792-.612,11.256,11.256,0,0,0-1.331-.4q-.72-.216-1.512-.4a10.233,10.233,0,0,1-1.439-.432,4.4,4.4,0,0,1-1.115-.648,1.267,1.267,0,0,1-.432-.972q4.21-.972,7.629-1.727,1.475-.324,2.879-.612,1.439-.324,2.627-.576,1.151-.252,1.979-.4a7.764,7.764,0,0,1,1.008-.144,8.3,8.3,0,0,1,1.187.108,13.341,13.341,0,0,1,1.4.36,4.856,4.856,0,0,1,1.223.612,1.164,1.164,0,0,1,.5.936,1.216,1.216,0,0,1-.324.9,2.326,2.326,0,0,1-.828.576,5.836,5.836,0,0,1-1.08.288q-.575.144-1.115.252a5.746,5.746,0,0,0-.971.324,1.153,1.153,0,0,0-.576.54,7.487,7.487,0,0,0-.4,1.871q-.108,1.3-.18,2.987t-.108,3.635q0,1.979-.108,3.922-.072,1.979-.252,3.778a25.749,25.749,0,0,1-.5,3.2,6.984,6.984,0,0,1-.863,2.231,1.569,1.569,0,0,1-1.331.828,6.425,6.425,0,0,1-2.771-.5,3.971,3.971,0,0,1-1.655-1.475,5.779,5.779,0,0,1-.828-2.267A18.526,18.526,0,0,1,285.507,25.463Zm24.074-.864a7.217,7.217,0,0,1,.108-1.259q.072-.576.18-1.152t.216-1.115a8.177,8.177,0,0,0,.072-1.08,1.962,1.962,0,0,0-.252-1.008,3.7,3.7,0,0,0-.648-.864q-.4-.36-.828-.72t-.827-.756a3.1,3.1,0,0,1-.648-.828,1.963,1.963,0,0,1-.252-1.008,4.785,4.785,0,0,1,.54-2.159,8.616,8.616,0,0,1,1.4-2.087,13.613,13.613,0,0,1,2.016-1.835A19.255,19.255,0,0,1,313,7.218a14.809,14.809,0,0,1,2.447-.972,7.607,7.607,0,0,1,2.2-.36,11.853,11.853,0,0,1,6.082,1.583,12.207,12.207,0,0,1,4.354,4.21,11.2,11.2,0,0,1,1.223,2.843,11.463,11.463,0,0,1,.432,3.167,16.185,16.185,0,0,1-.288,2.879,18.171,18.171,0,0,1-.827,3.167,20.045,20.045,0,0,1-1.439,3.095,12.282,12.282,0,0,1-1.943,2.663,10.417,10.417,0,0,1-2.519,1.871,6.607,6.607,0,0,1-3.059.72,13.979,13.979,0,0,1-3.527-.468,11.368,11.368,0,0,1-3.239-1.331,8.182,8.182,0,0,1-2.375-2.339A5.894,5.894,0,0,1,309.582,24.6Zm5.758,2.015v.4c.024.192.048.384.072.576a3.584,3.584,0,0,0,.18.54.346.346,0,0,0,.324.216,3.578,3.578,0,0,0,2.2-.792,9.971,9.971,0,0,0,1.871-2.087,18.184,18.184,0,0,0,1.547-2.879q.683-1.583,1.188-3.167a26.3,26.3,0,0,0,.719-2.951,12.839,12.839,0,0,0,.252-2.231v-.9a8.75,8.75,0,0,0-.072-1.08A9.723,9.723,0,0,0,323.4,11.1a3.051,3.051,0,0,0-.4-1.044,2.333,2.333,0,0,0-.648-.72,1.608,1.608,0,0,0-.972-.288,6.647,6.647,0,0,0-.935.072,5,5,0,0,0-1.043.18,6.713,6.713,0,0,0-.972.36,2.717,2.717,0,0,0-.792.54l-3.167,3.167a.816.816,0,0,0-.252.432,2.6,2.6,0,0,0-.036.432.88.88,0,0,0,.252.576,5.714,5.714,0,0,0,.684.576,9.759,9.759,0,0,0,.9.576q.5.288.972.576t.9.576a2.856,2.856,0,0,1,.611.576v.288a4,4,0,0,1-.5,1.835q-.468.972-1.08,2.051-.576,1.08-1.08,2.267A6.3,6.3,0,0,0,315.339,26.614Zm13.314,4.606V29.493a18.455,18.455,0,0,1,.288-3.167q.287-1.619.684-3.275t.864-3.239q.468-1.583.756-2.987V14.811a.853.853,0,0,0-.324-.648,3.01,3.01,0,0,0-.864-.576,9.714,9.714,0,0,0-1.116-.54,9.774,9.774,0,0,1-1.116-.576,4.97,4.97,0,0,1-.864-.612,1.159,1.159,0,0,1-.324-.792q0-.216.827-.576a21.081,21.081,0,0,1,2.2-.864q1.368-.468,3.167-.972,1.8-.54,3.706-1.044,1.943-.5,3.851-.972,1.943-.468,3.635-.828,1.655-.36,2.915-.576a12.948,12.948,0,0,1,1.871-.216,1.739,1.739,0,0,1,.756.216,3.133,3.133,0,0,1,.864.5,3.417,3.417,0,0,1,.684.756,1.385,1.385,0,0,1,.288.828,2.158,2.158,0,0,1-.5,1.475,4.22,4.22,0,0,1-1.367,1.008,15.03,15.03,0,0,1-1.943.72q-1.116.288-2.231.684a15.659,15.659,0,0,0-2.2.9,6.19,6.19,0,0,0-1.943,1.367,5.92,5.92,0,0,0-1.368,2.051,7.489,7.489,0,0,0-.54,3.023,2.184,2.184,0,0,0,.072.648q.072.216.5.216h.288l7.773-2.015h.576a1.977,1.977,0,0,1,.827.18,2.824,2.824,0,0,1,1.3,1.3,1.976,1.976,0,0,1,.18.828v.288a14.175,14.175,0,0,1-2.951,2.627,20.617,20.617,0,0,1-3.239,1.655,30.786,30.786,0,0,1-3.455,1.187q-1.763.5-3.6,1.152a2.388,2.388,0,0,0-1.115.864,6.453,6.453,0,0,0-.612,1.3q-.252.72-.432,1.439a4.411,4.411,0,0,1-.54,1.331,2.537,2.537,0,0,1-2.483,1.4,5.247,5.247,0,0,1-2.087-.432A4.335,4.335,0,0,1,328.654,31.22Zm34.906-8.349a14.615,14.615,0,0,1,.216-2.3,20,20,0,0,1,.611-2.879q.4-1.547.972-3.2a24.77,24.77,0,0,1,1.3-3.2,28.829,28.829,0,0,1,1.583-2.951,15.629,15.629,0,0,1,1.871-2.483A8.341,8.341,0,0,1,372.2,4.2a4.531,4.531,0,0,1,2.267-.612,5.33,5.33,0,0,1,1.62.324,21.184,21.184,0,0,1,2.015.828,22.282,22.282,0,0,1,2.123,1.259,15.079,15.079,0,0,1,1.871,1.511,8.646,8.646,0,0,1,1.368,1.655,2.963,2.963,0,0,1,.54,1.619h-.576l-1.079-.72a4.416,4.416,0,0,0-.792-.432,4.649,4.649,0,0,0-.827-.216,6.336,6.336,0,0,0-1.08-.072,4.412,4.412,0,0,0-2.159.576,7.339,7.339,0,0,0-1.908,1.511,13.6,13.6,0,0,0-1.691,2.2,25.981,25.981,0,0,0-1.4,2.7q-.611,1.439-1.115,2.951-.468,1.511-.827,2.951-.324,1.439-.5,2.7a20.889,20.889,0,0,0-.144,2.267v.972a4.494,4.494,0,0,0,.18,1.044,1.616,1.616,0,0,0,.432.828,1,1,0,0,0,.792.324,4.978,4.978,0,0,0,1.619-.4,16.735,16.735,0,0,0,2.339-1.008q1.26-.648,2.556-1.439t2.339-1.583a16.727,16.727,0,0,0,1.727-1.547,1.994,1.994,0,0,0,.684-1.224v-.288l-.324-.288q-.18,0-.684-.036t-1.116-.108a8.563,8.563,0,0,1-1.223-.252,4.068,4.068,0,0,1-1.187-.432,3.125,3.125,0,0,1-.9-.612,1.246,1.246,0,0,1-.324-.864v-.288a7.923,7.923,0,0,1,1.3-1.4,11.271,11.271,0,0,1,1.691-1.08,9.489,9.489,0,0,1,1.943-.72,7.719,7.719,0,0,1,1.943-.252,4.291,4.291,0,0,1,1.331.252,7.947,7.947,0,0,1,1.511.648,11.457,11.457,0,0,1,1.476,1.008,7.982,7.982,0,0,1,1.331,1.187,6.733,6.733,0,0,1,.935,1.331,2.847,2.847,0,0,1,.36,1.331,9.667,9.667,0,0,1-.252,1.907,21.669,21.669,0,0,1-.648,2.519q-.4,1.332-.935,2.7a21.792,21.792,0,0,1-1.152,2.483,8,8,0,0,1-1.367,1.8,2.088,2.088,0,0,1-1.4.684,2.375,2.375,0,0,1-1.008-.216q-.431-.252-.827-.5-.432-.252-.792-.5a1.775,1.775,0,0,0-.864-.216,5.108,5.108,0,0,0-1.476.216q-.683.252-1.439.5-.72.252-1.475.5a6.264,6.264,0,0,1-1.655.216,10.464,10.464,0,0,1-2.951-.432A12.6,12.6,0,0,1,369.6,32.7a15.339,15.339,0,0,1-2.41-1.907,12.016,12.016,0,0,1-1.908-2.375,11.2,11.2,0,0,1-1.3-2.7A9.609,9.609,0,0,1,363.56,22.872ZM389,24.6a10.8,10.8,0,0,1,.072-1.259q.108-.576.216-1.152t.18-1.115a5.475,5.475,0,0,0,.108-1.08,1.962,1.962,0,0,0-.252-1.008,3.7,3.7,0,0,0-.648-.864q-.4-.36-.828-.72a8.844,8.844,0,0,1-.863-.756,3.522,3.522,0,0,1-.612-.828,1.963,1.963,0,0,1-.252-1.008,5.074,5.074,0,0,1,.5-2.159,10.3,10.3,0,0,1,1.4-2.087,15.266,15.266,0,0,1,2.051-1.835,16.18,16.18,0,0,1,2.339-1.511,15.344,15.344,0,0,1,2.41-.972,7.973,7.973,0,0,1,2.232-.36,12.876,12.876,0,0,1,3.2.4,13.734,13.734,0,0,1,2.879,1.188,12.09,12.09,0,0,1,2.447,1.835A14.06,14.06,0,0,1,407.5,11.68a11.2,11.2,0,0,1,1.223,2.843,11.462,11.462,0,0,1,.432,3.167,16.189,16.189,0,0,1-.288,2.879A20.853,20.853,0,0,1,408,23.735a17.861,17.861,0,0,1-1.4,3.095,11.655,11.655,0,0,1-1.979,2.663,9.558,9.558,0,0,1-2.519,1.871,6.389,6.389,0,0,1-3.023.72,13.979,13.979,0,0,1-3.527-.468,10.829,10.829,0,0,1-3.239-1.331,7.627,7.627,0,0,1-2.375-2.339A5.894,5.894,0,0,1,389,24.6Zm5.758,2.015v.4a2.37,2.37,0,0,0,.072.576,1.444,1.444,0,0,0,.18.54.346.346,0,0,0,.324.216,3.432,3.432,0,0,0,2.159-.792,9.477,9.477,0,0,0,1.907-2.087,18.184,18.184,0,0,0,1.547-2.879,28.037,28.037,0,0,0,1.151-3.167,22.273,22.273,0,0,0,.756-2.951,12.844,12.844,0,0,0,.252-2.231v-.9q-.036-.5-.108-1.08a6.362,6.362,0,0,0-.18-1.152,4.5,4.5,0,0,0-.4-1.044,2.333,2.333,0,0,0-.648-.72,1.608,1.608,0,0,0-.972-.288,7.417,7.417,0,0,0-.971.072,4.936,4.936,0,0,0-1.008.18,6.237,6.237,0,0,0-1.008.36,2.255,2.255,0,0,0-.755.54L393.9,13.372a.764.764,0,0,0-.288.432v.432a.88.88,0,0,0,.252.576,3.9,3.9,0,0,0,.648.576,8,8,0,0,0,.935.576q.5.288.972.576t.864.576a2.613,2.613,0,0,1,.647.576v.288a4,4,0,0,1-.5,1.835q-.5.972-1.08,2.051a18,18,0,0,0-1.08,2.267A6.3,6.3,0,0,0,394.759,26.614Zm14.142,3.6V27.226q0-1.907.072-3.886.036-2.015.252-3.994.179-1.979.5-3.994.36-1.979.9-3.886l.576-.216a6.574,6.574,0,0,1,1.692.252,12.573,12.573,0,0,1,1.871.72,10.337,10.337,0,0,1,1.583.972,2.535,2.535,0,0,1,.9,1.044v2.339a21.511,21.511,0,0,1-.324,3.814,30.4,30.4,0,0,1-.792,3.563q-.5,1.727-1.188,3.527-.683,1.763-1.439,3.706a1.24,1.24,0,0,1-.611.684,1.853,1.853,0,0,1-.828.216,6.05,6.05,0,0,1-1.116-.108,3.825,3.825,0,0,1-1.008-.324,2.05,2.05,0,0,1-.756-.576A1.253,1.253,0,0,1,408.9,30.213Zm7.017-19.468q-5.4.144-4.5-4.21a10.112,10.112,0,0,1,.252-1.439,5.134,5.134,0,0,1,1.115-1.835,2.694,2.694,0,0,1,2.915-.72,3.543,3.543,0,0,1,2.591,1.619,6.759,6.759,0,0,1,.684,2.2,4.116,4.116,0,0,1-.36,2.2,5.221,5.221,0,0,1-1.259,1.871,1.308,1.308,0,0,1-.611.252A4.621,4.621,0,0,1,415.918,10.745Zm.108,26.521V34.387q0-3.347.288-6.693.252-3.347.5-6.693.288-3.347.432-6.693a62.383,62.383,0,0,0-.072-6.693,2.048,2.048,0,0,1,.468-.648,1.015,1.015,0,0,1,.684-.216,9.3,9.3,0,0,1,3.167.432,7.22,7.22,0,0,1,2.3,1.691,13.513,13.513,0,0,1,2.016,2.807,12.315,12.315,0,0,1,1.043,4.93,19.522,19.522,0,0,0,1.223,6.01q1.044,2.7,1.871.288,1.727-6.657,1.907-7.953t.36-2.447q.145-1.152.288-2.015.18-.864.216-1.152a6.2,6.2,0,0,1,.108-.684q.108-.54.216-1.259.144-.72.288-1.367a9.889,9.889,0,0,1,.252-1.008q.107-.432.252-1.08a7.723,7.723,0,0,1,.324-1.224,3.458,3.458,0,0,1,.576-1.008,1.026,1.026,0,0,1,.864-.432,3.034,3.034,0,0,1,1.691.468,3.92,3.92,0,0,1,1.152,1.116,5.19,5.19,0,0,1,.684,1.583,7.1,7.1,0,0,1,.216,1.727q0,.72-.036,2.159-.073,1.439-.216,3.347-.145,1.871-.36,4.066t-.576,4.354q-.324,2.159-.792,4.174a29.3,29.3,0,0,1-1.043,3.563,9.527,9.527,0,0,1-1.368,2.483,2.09,2.09,0,0,1-1.655.9,5.872,5.872,0,0,1-2.663-.612,8.853,8.853,0,0,1-2.2-1.547,15.585,15.585,0,0,1-1.763-2.015,20.39,20.39,0,0,1-2.3-4.174h-.288a7.669,7.669,0,0,0-.18,1.26q-.036.864-.108,2.015t-.18,2.519q-.108,1.367-.288,2.735t-.432,2.627a12.2,12.2,0,0,1-.719,2.231,4.731,4.731,0,0,1-1.008,1.583,1.99,1.99,0,0,1-1.4.576h-1.08a6.373,6.373,0,0,1-1.007-.144,3.321,3.321,0,0,1-.9-.324A2.544,2.544,0,0,1,416.026,37.266Zm21.519-14.394a14.634,14.634,0,0,1,.216-2.3q.216-1.367.611-2.879.4-1.547.972-3.2a34.392,34.392,0,0,1,1.3-3.2,25.055,25.055,0,0,1,1.619-2.951,17.068,17.068,0,0,1,1.836-2.483A9.282,9.282,0,0,1,446.182,4.2a4.73,4.73,0,0,1,2.3-.612,5.006,5.006,0,0,1,1.583.324,17.056,17.056,0,0,1,2.015.828,17.582,17.582,0,0,1,2.123,1.259,13.919,13.919,0,0,1,1.908,1.511,7.628,7.628,0,0,1,1.331,1.655,2.962,2.962,0,0,1,.539,1.619h-.576l-1.08-.72a3.228,3.228,0,0,0-.792-.432,3.808,3.808,0,0,0-.792-.216,6.737,6.737,0,0,0-1.08-.072,4.281,4.281,0,0,0-2.159.576,7.327,7.327,0,0,0-1.907,1.511,13.564,13.564,0,0,0-1.692,2.2,19.075,19.075,0,0,0-1.4,2.7,25.681,25.681,0,0,0-1.116,2.951,30.5,30.5,0,0,0-.828,2.951q-.324,1.439-.5,2.7a16.715,16.715,0,0,0-.18,2.267q0,.432.036.972a3.524,3.524,0,0,0,.144,1.044,2.087,2.087,0,0,0,.431.828,1.051,1.051,0,0,0,.828.324,4.979,4.979,0,0,0,1.619-.4,17.8,17.8,0,0,0,2.3-1.008q1.26-.648,2.555-1.439t2.34-1.583a15.294,15.294,0,0,0,1.763-1.547,2.033,2.033,0,0,0,.647-1.224v-.288l-.288-.288q-.216,0-.72-.036-.468-.036-1.079-.108a8.349,8.349,0,0,1-1.26-.252,4.663,4.663,0,0,1-1.188-.432,3.289,3.289,0,0,1-.863-.612,1.177,1.177,0,0,1-.36-.864v-.288a8.107,8.107,0,0,1,3.023-2.483,8.682,8.682,0,0,1,1.907-.72,8.14,8.14,0,0,1,1.979-.252,3.967,3.967,0,0,1,1.3.252,6.823,6.823,0,0,1,1.512.648,10.352,10.352,0,0,1,1.512,1.008,7.989,7.989,0,0,1,1.332,1.187,5.658,5.658,0,0,1,.9,1.331,2.845,2.845,0,0,1,.36,1.331,11.174,11.174,0,0,1-.216,1.907q-.252,1.152-.647,2.519-.4,1.332-.936,2.7A18.368,18.368,0,0,1,461.62,31.9a8.748,8.748,0,0,1-1.331,1.8,2.117,2.117,0,0,1-1.439.684,2.144,2.144,0,0,1-.972-.216q-.468-.252-.863-.5l-.792-.5a1.7,1.7,0,0,0-.827-.216,5.1,5.1,0,0,0-1.475.216l-1.439.5q-.72.252-1.512.5a5.871,5.871,0,0,1-1.62.216,10.211,10.211,0,0,1-2.95-.432,12.572,12.572,0,0,1-2.771-1.259,14.568,14.568,0,0,1-2.447-1.907,14.051,14.051,0,0,1-1.907-2.375,12.042,12.042,0,0,1-1.259-2.7A8.94,8.94,0,0,1,437.546,22.872ZM478.6,32.948q0-3.347-.108-6.477-.144-3.095-.432-6.154-.324-3.059-.9-6.117-.539-3.059-1.4-6.3V7.614l.288-.576h.864a12.84,12.84,0,0,1,2.771.252,5.214,5.214,0,0,1,1.8.72,3.464,3.464,0,0,1,1.08,1.044,6.282,6.282,0,0,1,.576,1.3,10.141,10.141,0,0,1,.324,1.475q.108.756.288,1.547a9.32,9.32,0,0,0,.5,1.511,4.636,4.636,0,0,0,.972,1.367h.324l.287-.288q.648-1.3,1.3-2.771.683-1.475,1.4-2.951t1.547-2.915a18.208,18.208,0,0,1,1.763-2.591q.251-.216.36-.324a.706.706,0,0,1,.252-.18l.216-.072h.36a4.408,4.408,0,0,1,1.331.216,5.313,5.313,0,0,1,1.3.576,4.1,4.1,0,0,1,1.008.9,1.964,1.964,0,0,1,.4,1.188,10.877,10.877,0,0,1-.576,3.455q-.576,1.727-1.331,3.419-.793,1.691-1.62,3.347a26.84,26.84,0,0,0-1.367,3.311,18.362,18.362,0,0,0-.468,1.8q-.216,1.152-.5,2.627-.252,1.439-.576,3.095-.36,1.655-.72,3.275-.4,1.619-.864,3.095A22.171,22.171,0,0,1,488,37.086a7.187,7.187,0,0,1-1.26,1.8,2.1,2.1,0,0,1-1.511.684,6.337,6.337,0,0,1-2.627-.5,5.474,5.474,0,0,1-1.943-1.4,7.226,7.226,0,0,1-1.331-2.087A11.46,11.46,0,0,1,478.6,32.948Zm13.711-2.735V27.226q0-1.907.036-3.886.072-2.015.252-3.994.217-1.979.54-3.994a30.527,30.527,0,0,1,.9-3.886l.54-.216a6.681,6.681,0,0,1,1.728.252,11.239,11.239,0,0,1,1.835.72,8.465,8.465,0,0,1,1.583.972,2.481,2.481,0,0,1,.935,1.044v2.339a21.519,21.519,0,0,1-.324,3.814,30.406,30.406,0,0,1-.792,3.563q-.54,1.727-1.223,3.527-.683,1.763-1.439,3.706a1.24,1.24,0,0,1-.611.684,1.705,1.705,0,0,1-.828.216,5.873,5.873,0,0,1-1.08-.108,3.831,3.831,0,0,1-1.008-.324,2.048,2.048,0,0,1-.756-.576A1.253,1.253,0,0,1,492.315,30.213Zm7.017-19.468q-5.4.144-4.5-4.21a10.008,10.008,0,0,1,.252-1.439A5.149,5.149,0,0,1,496.2,3.26a2.694,2.694,0,0,1,2.915-.72,3.415,3.415,0,0,1,2.555,1.619,6.332,6.332,0,0,1,.72,2.2,4.124,4.124,0,0,1-.36,2.2,5.232,5.232,0,0,1-1.26,1.871,1.309,1.309,0,0,1-.611.252A5.046,5.046,0,0,1,499.332,10.745ZM500.88,34.1v-4.03q0-1.4.036-2.771t.108-2.7q.036-1.331.072-2.7t.037-2.771V16.538a2.294,2.294,0,0,0-.864-.9q-.684-.468-1.476-.972-.755-.5-1.475-.972a3.386,3.386,0,0,1-1.043-.9v-.288a1.719,1.719,0,0,1,.576-1.223,6.089,6.089,0,0,1,1.619-1.044,14.9,14.9,0,0,1,2.3-.9q1.332-.4,2.771-.72t2.879-.576q1.439-.252,2.7-.4,1.3-.144,2.3-.252,1.007-.072,1.547-.072h3.166a7.108,7.108,0,0,1,1.4.36,12.993,12.993,0,0,1,1.8.684q.9.432,1.836.972a14.488,14.488,0,0,1,1.655,1.152,7.215,7.215,0,0,1,1.187,1.259,2.359,2.359,0,0,1,.468,1.331v.288a15.471,15.471,0,0,1-1.692,1.3q-1.187.828-2.663,1.727t-3.023,1.835q-1.583.936-2.879,1.727-1.331.792-2.16,1.367-.827.54-.827.684V22.3l.288.288q.216.072.647.252.469.216,1.044.468.54.288,1.188.576.611.324,1.187.576t1.007.468c.313.12.54.2.684.252s.408.132.792.252q.576.144,1.3.4.756.216,1.547.5a13.553,13.553,0,0,1,1.439.612,5.266,5.266,0,0,1,1.116.684.983.983,0,0,1,.431.72.618.618,0,0,1-.216.5.98.98,0,0,1-.431.252,4.87,4.87,0,0,1-.576.108h-.5a16.392,16.392,0,0,1-3.346-.36,27.435,27.435,0,0,1-3.347-.864q-1.692-.54-3.274-1.223-1.583-.648-2.987-1.3h-.612a.96.96,0,0,0-.648.216,2.047,2.047,0,0,0-.468.648q-.108,1.08-.18,2.231-.073,1.188-.18,2.411-.144,1.224-.324,2.447t-.468,2.411a6.291,6.291,0,0,1-.468.792.791.791,0,0,1-.684.36,3.893,3.893,0,0,1-1.259-.252,6.22,6.22,0,0,1-1.331-.648,5.463,5.463,0,0,1-1.152-.936A2.173,2.173,0,0,1,500.88,34.1Zm5.47-19.576a2.018,2.018,0,0,0,.18.756,4.03,4.03,0,0,0,.54.864,3.874,3.874,0,0,0,.72.684,1.5,1.5,0,0,0,.827.288h.324q.216-.108.828-.5.612-.36,1.331-.828.683-.468,1.332-.9a7.13,7.13,0,0,0,.827-.648q.324-.216.792-.468a8.507,8.507,0,0,0,.972-.648,3.388,3.388,0,0,0,.756-.792,1.479,1.479,0,0,0,.36-.972,8.637,8.637,0,0,0-1.223.144,18.461,18.461,0,0,0-1.979.36q-1.079.216-2.231.54a19.352,19.352,0,0,0-2.159.648,8.186,8.186,0,0,0-1.584.756Q506.35,14.163,506.35,14.523Zm28.86,13.243a2.467,2.467,0,0,0-1.008-.54,12.1,12.1,0,0,0-1.476-.36,11.74,11.74,0,0,0-1.511-.18q-.756-.072-1.152-.072a1.878,1.878,0,0,0-1.332.468,4.257,4.257,0,0,0-.9,1.116,13.417,13.417,0,0,0-.684,1.439,13.453,13.453,0,0,1-.756,1.439,4.133,4.133,0,0,1-.972,1.152,2.237,2.237,0,0,1-1.439.432,4.616,4.616,0,0,1-.827-.072,1.958,1.958,0,0,1-.72-.252,1.925,1.925,0,0,1-.54-.54,1.776,1.776,0,0,1-.18-.864,8.568,8.568,0,0,1,.324-1.691q.323-1.26.9-3.023.54-1.763,1.259-3.85t1.512-4.246q.755-2.123,1.511-4.1.756-2.015,1.4-3.563.611-1.547,1.08-2.483t.611-.936a2.884,2.884,0,0,1,.828.108q.4.072.792.18.36.108.756.216a4.248,4.248,0,0,0,.827.072,2.024,2.024,0,0,0,.4-.036,1.282,1.282,0,0,0,.324-.108.142.142,0,0,0,.108-.144V2.144a.707.707,0,0,1,.36-.648,1.641,1.641,0,0,1,.792-.216,8.581,8.581,0,0,1,3.383.54,4.084,4.084,0,0,1,1.907,1.439,6.34,6.34,0,0,1,1.007,2.267q.324,1.331.648,2.951.18.972.4,1.727t.4,1.439q.144.684.252,1.439.072.756.072,1.727,0,2.591-.144,5.182-.108,2.591-.288,5.182-.144,2.591-.287,5.182t-.144,5.182a2.844,2.844,0,0,1-.756,1.979,2.059,2.059,0,0,1-.792.648,2.092,2.092,0,0,1-1.007.252,4.7,4.7,0,0,1-2.375-.54,4.047,4.047,0,0,1-1.476-1.439,6.769,6.769,0,0,1-.792-2.051,17.766,17.766,0,0,1-.288-2.3q-.072-1.188-.036-2.3Q535.21,28.629,535.21,27.766Zm-4.282-4.318a.961.961,0,0,0,.4.828,3.2,3.2,0,0,0,1.008.432,4.309,4.309,0,0,0,1.116.144q.575.036.9.036a.5.5,0,0,0,.54-.36,4.061,4.061,0,0,0,.071-.792q0-1.727-.18-3.634t-.432-3.85l-.252-.288a2.349,2.349,0,0,0-.647.756q-.36.576-.72,1.3-.324.756-.648,1.583t-.611,1.583q-.252.756-.4,1.367A4.42,4.42,0,0,0,530.927,23.448Zm12.667.576q0-.648.072-1.8t.216-2.591q.18-1.439.4-3.059t.5-3.2q.288-1.583.612-3.059a18.217,18.217,0,0,1,.755-2.555,8.15,8.15,0,0,1,.828-1.763q.432-.684.935-.684a7.756,7.756,0,0,1,1.188.108q.72.144,1.475.36a12.186,12.186,0,0,1,1.548.612,7.671,7.671,0,0,1,1.367.828,5.317,5.317,0,0,1,.972,1.116,2.4,2.4,0,0,1,.36,1.3,12.888,12.888,0,0,1-.288,2.663,24.515,24.515,0,0,1-.684,2.771q-.431,1.4-.9,2.843-.5,1.439-.9,2.879-.432,1.475-.72,2.915a17.355,17.355,0,0,0-.252,2.915.55.55,0,0,0,.18.4.516.516,0,0,0,.359.18,3.514,3.514,0,0,0,1.655-.4,14.416,14.416,0,0,0,1.547-.9,16.61,16.61,0,0,1,1.512-.9,3.654,3.654,0,0,1,1.655-.4,3.593,3.593,0,0,1,1.223.252,6.235,6.235,0,0,1,1.331.648,4.778,4.778,0,0,1,1.043.9,1.727,1.727,0,0,1,.432,1.08,2.527,2.527,0,0,1-.4,1.4A3.838,3.838,0,0,1,560.579,30a5.876,5.876,0,0,1-1.475.828,9.574,9.574,0,0,1-1.728.54,15.431,15.431,0,0,1-1.655.324,11.533,11.533,0,0,1-1.475.108,14.216,14.216,0,0,1-4.822-.864,11.986,11.986,0,0,1-2.231-1.08,8.324,8.324,0,0,1-1.871-1.511,6.934,6.934,0,0,1-1.259-1.943A5.9,5.9,0,0,1,543.594,24.023Z" transform="translate(16.596 137.649)" fill="#fff"/>
  </g>
</svg>
