<svg xmlns="http://www.w3.org/2000/svg" width="150.795" height="105.126" viewBox="0 0 150.795 105.126">
  <g id="Reaction_4" data-name="Reaction #4" transform="translate(-641.974 -306.391)">
    <path id="Path_46" data-name="Path 46" d="M4006.118,178.482h0a7.772,7.772,0,0,1,1.956.493c2.718.867,8.374,2.672,20.51,3.861,6.652.652,14.458.956,24.564.956,6.3,0,12.856-.117,19.2-.229,6.233-.111,12.677-.226,18.769-.226,14.759,0,24.744.7,32.379,2.269a40.4,40.4,0,0,1,8,2.288c1.732.78,2.677,1.634,2.888,2.611.408,1.888-1.915,3.576-4.605,5.532-2.76,2.006-5.888,4.279-5.888,6.791a31.844,31.844,0,0,0,.557,6.136,12.072,12.072,0,0,1-.583,7.336c-.427,1.271-.678,2.3-.9,3.2a8.14,8.14,0,0,1-1.675,3.907c-.972,1.083-2.59,2.052-5.586,3.347-5.637,2.436-8.38,2.505-14.391,2.658-2.149.055-4.824.123-8.206.319-1.336.077-2.7.117-4.046.117-3.775,0-7.08-.3-10-.573-2.475-.228-4.813-.443-7.074-.443a25.7,25.7,0,0,0-6.989.882,5.084,5.084,0,0,0-3.878,4.083,19.619,19.619,0,0,0,0,6.1c.212,2.011.366,3.465-.27,4.171a1.211,1.211,0,0,1-.929.394,1.915,1.915,0,0,1-.375-.039c-1.844-.369-2.441-3.022-3.2-6.381-.96-4.269-2.155-9.581-6.337-11.285a15.575,15.575,0,0,0-6.113-1.365,30.646,30.646,0,0,0-4.548.472,70.709,70.709,0,0,1-10.816.93,64.977,64.977,0,0,0-10.813,1.077,39.627,39.627,0,0,1-6.632.728,25.3,25.3,0,0,1-9.1-1.836,6.577,6.577,0,0,1-4.022-4.139,15.726,15.726,0,0,1-.537-6.772c.488-5.088,2.356-11.187,4.163-17.084a94.465,94.465,0,0,0,3.331-12.747,26.316,26.316,0,0,0,.239-5.472c-.046-.94-.071-1.458.259-1.8A.91.91,0,0,1,4006.118,178.482Zm47.031,6.31c-10.14,0-17.977-.305-24.662-.961-12.242-1.2-17.966-3.026-20.717-3.9a9.891,9.891,0,0,0-1.612-.444,7.472,7.472,0,0,0,.012,1.021,27.543,27.543,0,0,1-.247,5.662,95.062,95.062,0,0,1-3.365,12.9c-1.792,5.85-3.645,11.9-4.124,16.887a14.788,14.788,0,0,0,.482,6.338,5.549,5.549,0,0,0,3.43,3.54,24.356,24.356,0,0,0,8.75,1.773,38.892,38.892,0,0,0,6.469-.714,65.825,65.825,0,0,1,10.966-1.09,69.844,69.844,0,0,0,10.679-.919,31.8,31.8,0,0,1,4.7-.483,16.506,16.506,0,0,1,6.491,1.439c4.666,1.9,5.924,7.5,6.936,11.991.622,2.766,1.21,5.378,2.417,5.62a.924.924,0,0,0,.178.02c.129,0,.166-.041.185-.063.338-.375.168-1.981.019-3.4a20.368,20.368,0,0,1,.02-6.428,6.082,6.082,0,0,1,4.588-4.826,26.671,26.671,0,0,1,7.253-.918c2.307,0,4.667.217,7.167.447,2.895.267,6.175.569,9.9.569,1.329,0,2.671-.039,3.988-.115,3.4-.2,6.082-.265,8.239-.32,6.054-.154,8.561-.218,14.02-2.577,2.853-1.233,4.371-2.13,5.239-3.1a7.316,7.316,0,0,0,1.448-3.476c.214-.88.482-1.974.922-3.286a11.142,11.142,0,0,0,.546-6.846,32.7,32.7,0,0,1-.572-6.308c0-3.021,3.347-5.453,6.3-7.6,2.206-1.6,4.486-3.26,4.216-4.511-.138-.636-.918-1.279-2.321-1.911a39.505,39.505,0,0,0-7.8-2.22c-7.566-1.555-17.49-2.248-32.178-2.248-6.083,0-12.523.115-18.751.225C4066.019,184.675,4059.459,184.792,4053.149,184.792Z" transform="matrix(0.951, -0.309, 0.309, 0.951, -3214.854, 1414.255)" fill="#fff"/>
    <path id="Icon_material-person-add" data-name="Icon material-person-add" d="M22.5,18a6,6,0,1,0-6-6A6,6,0,0,0,22.5,18ZM9,15V10.5H6V15H1.5v3H6v4.5H9V18h4.5V15Zm13.5,6c-4.005,0-12,2.01-12,6v3h24V27C34.5,23.01,26.505,21,22.5,21Z" transform="matrix(0.951, -0.309, 0.309, 0.951, 659.982, 352.18)" fill="#fff"/>
    <path id="Path_143" data-name="Path 143" d="M8.856,0V-2.856H1.2v-2.7L6.732-17.28h3.3L4.5-5.556H8.856v-4.5h2.928v4.5H13.4v2.7h-1.62V0ZM21.228.324a6.041,6.041,0,0,1-2.448-.5,5.868,5.868,0,0,1-2-1.428,5.484,5.484,0,0,1-1.218-2.184l2.8-.756a2.832,2.832,0,0,0,1.1,1.59,2.934,2.934,0,0,0,1.758.546,2.945,2.945,0,0,0,1.524-.4A2.865,2.865,0,0,0,23.8-3.882,3.026,3.026,0,0,0,24.18-5.4a2.983,2.983,0,0,0-.828-2.148,2.827,2.827,0,0,0-2.136-.864,2.8,2.8,0,0,0-.774.108,3.474,3.474,0,0,0-.726.3l-1.32-2.28L24.2-15.252l.252.7h-8.22V-17.28h10.6v2.736l-4.668,4.488-.024-.852a5.251,5.251,0,0,1,2.682.876,5.1,5.1,0,0,1,1.7,1.98A5.944,5.944,0,0,1,27.12-5.4a5.471,5.471,0,0,1-.8,2.928A5.793,5.793,0,0,1,24.186-.426,5.946,5.946,0,0,1,21.228.324ZM45.8,0V-7.872a3.045,3.045,0,0,0-.66-2.082,2.261,2.261,0,0,0-1.788-.75,2.454,2.454,0,0,0-1.248.318,2.257,2.257,0,0,0-.876.936,3.126,3.126,0,0,0-.324,1.47l-1.284-.756a4.424,4.424,0,0,1,.606-2.37,4.353,4.353,0,0,1,1.674-1.6,4.83,4.83,0,0,1,2.352-.576,4.175,4.175,0,0,1,3.294,1.29A4.914,4.914,0,0,1,48.7-8.6V0ZM30.216,0V-12.96h2.556v4.02h.36V0Zm7.812,0V-7.836a3.107,3.107,0,0,0-.66-2.112,2.266,2.266,0,0,0-1.8-.756,2.243,2.243,0,0,0-1.77.756,2.868,2.868,0,0,0-.666,1.968l-1.3-.864a4.221,4.221,0,0,1,.624-2.268,4.475,4.475,0,0,1,1.686-1.59,4.874,4.874,0,0,1,2.382-.582,4.465,4.465,0,0,1,2.43.618,3.83,3.83,0,0,1,1.464,1.68,5.689,5.689,0,0,1,.486,2.394V0Z" transform="matrix(0.951, -0.309, 0.309, 0.951, 710.098, 363.986)" fill="#fff"/>
  </g>
</svg>
