<svg xmlns="http://www.w3.org/2000/svg" width="1426.961" height="239.163" viewBox="0 0 1426.961 239.163">
  <g id="Curvy_Dividers" data-name="Curvy Dividers" transform="translate(-19.577 -1142.645)">
    <path id="Контур_29" data-name="Контур 29" d="M1969.884,511.144S2048.063,588.765,2207,622.425s113.168-120.7,343.6-98.335,365.48,108.521,584.221,158.138,261.319,27.381,261.319,27.381" transform="translate(-1949.884 636.856)" fill="none" stroke="#fff" stroke-width="1"/>
    <path id="Контур_30" data-name="Контур 30" d="M1969.884,511.144S2048.063,588.765,2207,622.425s113.168-120.7,343.6-98.335,365.48,108.521,584.221,158.138,261.319,27.381,261.319,27.381" transform="translate(-1949.884 645.856)" fill="none" stroke="#fff" stroke-width="1"/>
    <path id="Контур_31" data-name="Контур 31" d="M1969.884,511.144S2048.063,588.765,2207,622.425s113.168-120.7,343.6-98.335,365.48,108.521,584.221,158.138,261.319,27.381,261.319,27.381" transform="translate(-1949.884 653.856)" fill="none" stroke="#fff" stroke-width="1.2"/>
    <path id="Контур_34" data-name="Контур 34" d="M1969.884,511.144S2048.063,588.765,2207,622.425s113.168-120.7,343.6-98.335,365.48,108.521,584.221,158.138,261.319,27.381,261.319,27.381" transform="translate(-1949.884 631.856)" fill="none" stroke="#fff" stroke-width="1"/>
    <path id="Контур_32" data-name="Контур 32" d="M1969.884,511.144S2048.063,588.765,2207,622.425s113.168-120.7,343.6-98.335,365.48,108.521,584.221,158.138,261.319,27.381,261.319,27.381" transform="translate(-1949.884 660.856)" fill="none" stroke="#fff" stroke-width="1"/>
    <path id="Контур_33" data-name="Контур 33" d="M1969.884,511.144S2048.063,588.765,2207,622.425s113.168-120.7,343.6-98.335,365.48,108.521,584.221,158.138,261.319,27.381,261.319,27.381" transform="translate(-1949.884 666.856)" fill="none" stroke="#fff" stroke-width="0.75"/>
  </g>
</svg>
