<svg xmlns="http://www.w3.org/2000/svg" width="752.411" height="188.139" viewBox="0 0 752.411 188.139">
  <g id="Planet_Skirt" data-name="Planet Skirt" transform="translate(-655.751 -477.99)">
    <path id="Контур_35" data-name="Контур 35" d="M4209.564,478.462c-42.207,14.916-44.832,17.167-94.833,43.711s-38.96,57.455,10.645,86.348,103.282,20.874,194.739,40.423,83.716,19.855,175.415,11.538,124.314-9.082,198.427-40.03S4833.8,519.767,4833.8,519.767" transform="translate(-3426)" fill="none" stroke="#fff" stroke-width="1"/>
    <path id="Контур_36" data-name="Контур 36" d="M4195.059,484.231c-42.207,14.388-30.326,10.78-80.327,36.385s-38.96,55.421,10.645,83.291,103.282,20.135,194.739,38.992,83.716,19.152,175.415,11.13,117.265-13.368,191.377-43.22,116.174-90.352,116.174-90.352" transform="translate(-3412.622)" fill="none" stroke="#fff" stroke-width="1"/>
    <path id="Контур_37" data-name="Контур 37" d="M4180.979,485.247c-39.209,13.366-22.1,8.57-68.553,32.356s-36.193,51.485,9.889,77.376,95.946,18.7,180.908,36.223,77.771,17.792,162.956,10.339,112.861-9.8,181.71-37.536,119.684-89.978,119.684-89.978" transform="translate(-3399.263 6.421)" fill="none" stroke="#fff" stroke-width="1"/>
    <path id="Контур_38" data-name="Контур 38" d="M4160.194,493.41c-36.658,14.59-5.605-.073-49.457,22.382s-34.168,48.6,9.335,73.046,90.577,17.658,170.784,34.2,73.418,16.8,153.837,9.761,106.545-9.255,171.542-35.435,118.5-89.239,118.5-89.239" transform="translate(-3380.137 10.924)" fill="none" stroke="#fff" stroke-width="1"/>
  </g>
</svg>
