<svg xmlns="http://www.w3.org/2000/svg" width="326.28" height="143.885" viewBox="0 0 326.28 143.885">
  <g id="Design_Elements" data-name="Design Elements" transform="matrix(0.985, -0.174, 0.174, 0.985, -332.787, -987.763)">
    <path id="Контур_48" data-name="Контур 48" d="M3582,1117.515s-.592-8.957,6.518-14,12.031-7.791,21.924-6.165,21.512,6.607,27.209,14.105-1.812,14.372-4.418,15.886-7.114-2.331-6.009-9.829,1.235-16.894,10.427-20.163,17.835-.408,26.343,7.089,8.692,19.634,7.688,22.9-14.084-4.1-11.7-9.829,8.988-9.8,21.225-13.073,20.793-5.726,27.724,0,2.051,19.634,0,22.9-16.216-4.1-8.2-9.829,25.791-15.531,40.254-13.073,17.6,17.177,17.6,22.9-17.6,3.972-17.6,0,1.987-13.429,17.6-15.886,36.447-.447,44.844,6.057-5.436,17.5-11.258,19.961-13.16-1.874-12.032-10.132,4.22-18.931,16.545-22.9,21.995-3.312,32.754,7.016,13.611,30.323,10.284,34.294-26.741-11.349-23.592-18.408,22.714-12.362,36.188-9.829,12.1,23.229,17.707,19.961-2.1-24.776,4.719-33.034,16.907,0,22.542,0" transform="matrix(0.996, -0.087, 0.087, 0.996, -3513.489, 333.197)" fill="none" stroke="#fff" stroke-width="1"/>
    <path id="Контур_49" data-name="Контур 49" d="M3582,1117.515s-.592-8.957,6.518-14,12.031-7.791,21.924-6.165,21.512,6.607,27.209,14.105-1.812,14.372-4.418,15.886-7.114-2.331-6.009-9.829,1.235-16.894,10.427-20.163,17.835-.408,26.343,7.089,8.692,19.634,7.688,22.9-14.084-4.1-11.7-9.829,8.988-9.8,21.225-13.073,20.793-5.726,27.724,0,2.051,19.634,0,22.9-16.216-4.1-8.2-9.829,25.791-15.531,40.254-13.073,17.6,17.177,17.6,22.9-17.6,3.972-17.6,0,1.987-13.429,17.6-15.886,36.447-.447,44.844,6.057-5.436,17.5-11.258,19.961-13.16-1.874-12.032-10.132,4.22-18.931,16.545-22.9,21.995-3.312,32.754,7.016,13.611,30.323,10.284,34.294-26.741-11.349-23.592-18.408,22.714-12.362,36.188-9.829,12.1,23.229,17.707,19.961-2.1-24.776,4.719-33.034,16.907,0,22.542,0" transform="matrix(0.996, -0.087, 0.087, 0.996, -3519.489, 340.197)" fill="none" stroke="#fff" stroke-width="1"/>
    <path id="Контур_50" data-name="Контур 50" d="M3582,1117.515s-.592-8.957,6.518-14,12.031-7.791,21.924-6.165,21.512,6.607,27.209,14.105-1.812,14.372-4.418,15.886-7.114-2.331-6.009-9.829,1.235-16.894,10.427-20.163,17.835-.408,26.343,7.089,8.692,19.634,7.688,22.9-14.084-4.1-11.7-9.829,8.988-9.8,21.225-13.073,20.793-5.726,27.724,0,2.051,19.634,0,22.9-16.216-4.1-8.2-9.829,25.791-15.531,40.254-13.073,17.6,17.177,17.6,22.9-17.6,3.972-17.6,0,1.987-13.429,17.6-15.886,36.447-.447,44.844,6.057-5.436,17.5-11.258,19.961-13.16-1.874-12.032-10.132,4.22-18.931,16.545-22.9,21.995-3.312,32.754,7.016,13.611,30.323,10.284,34.294-26.741-11.349-23.592-18.408,22.714-12.362,36.188-9.829,12.1,23.229,17.707,19.961-2.1-24.776,4.719-33.034,16.907,0,22.542,0" transform="matrix(0.996, -0.087, 0.087, 0.996, -3523.489, 344.154)" fill="none" stroke="#fff" stroke-width="1"/>
  </g>
</svg>
