<svg id="Logo" xmlns="http://www.w3.org/2000/svg" xmlns:xlink="http://www.w3.org/1999/xlink" width="92.661" height="24" viewBox="0 0 92.661 24">
  <defs>
    <filter id="Прямоугольник_56" x="9.115" y="0" width="30.132" height="49" filterUnits="userSpaceOnUse">
      <feOffset dy="16" input="SourceAlpha"/>
      <feGaussianBlur stdDeviation="3" result="blur"/>
      <feFlood flood-opacity="0.161"/>
      <feComposite operator="in" in2="blur"/>
      <feComposite in="SourceGraphic"/>
    </filter>
    <clipPath id="clip-path">
      <rect id="Прямоугольник_52" data-name="Прямоугольник 52" width="12.471" height="24" fill="#fff"/>
    </clipPath>
    <clipPath id="clip-path-2">
      <rect id="Прямоугольник_51" data-name="Прямоугольник 51" width="12.55" height="24.225" fill="#fff"/>
    </clipPath>
    <clipPath id="clip-path-3">
      <rect id="Прямоугольник_54" data-name="Прямоугольник 54" width="3.439" height="24" fill="#fff"/>
    </clipPath>
    <clipPath id="clip-path-4">
      <rect id="Прямоугольник_53" data-name="Прямоугольник 53" width="3.274" height="23.715" fill="#fff"/>
    </clipPath>
    <clipPath id="clip-path-5">
      <g transform="matrix(1, 0, 0, 1, 0, 0)" filter="url(#Прямоугольник_56)">
        <rect id="Прямоугольник_56-2" data-name="Прямоугольник 56" width="12.132" height="24" fill="#fff"/>
      </g>
    </clipPath>
    <clipPath id="clip-path-6">
      <rect id="Прямоугольник_55" data-name="Прямоугольник 55" width="12.004" height="23.46" fill="#fff"/>
    </clipPath>
    <clipPath id="clip-path-7">
      <rect id="Прямоугольник_58" data-name="Прямоугольник 58" width="13.206" height="24" fill="#fff"/>
    </clipPath>
    <clipPath id="clip-path-8">
      <rect id="Прямоугольник_57" data-name="Прямоугольник 57" width="12.277" height="22.44" fill="#fff"/>
    </clipPath>
    <clipPath id="clip-path-9">
      <rect id="Прямоугольник_60" data-name="Прямоугольник 60" width="9.629" height="24" fill="#fff"/>
    </clipPath>
    <clipPath id="clip-path-10">
      <rect id="Прямоугольник_59" data-name="Прямоугольник 59" width="9.822" height="23.97" fill="#fff"/>
    </clipPath>
    <clipPath id="clip-path-11">
      <rect id="Прямоугольник_62" data-name="Прямоугольник 62" width="11.476" height="24" fill="#fff"/>
    </clipPath>
    <clipPath id="clip-path-12">
      <rect id="Прямоугольник_61" data-name="Прямоугольник 61" width="11.186" height="23.46" fill="#fff"/>
    </clipPath>
    <clipPath id="clip-path-13">
      <rect id="Прямоугольник_64" data-name="Прямоугольник 64" width="11.494" height="24" fill="#fff"/>
    </clipPath>
    <clipPath id="clip-path-14">
      <rect id="Прямоугольник_63" data-name="Прямоугольник 63" width="11.459" height="23.97" fill="#fff"/>
    </clipPath>
    <clipPath id="clip-path-16">
      <rect id="Прямоугольник_65" data-name="Прямоугольник 65" width="12.55" height="23.97" fill="#fff"/>
    </clipPath>
  </defs>
  <g id="Сгруппировать_79" data-name="Сгруппировать 79" transform="translate(0 0)" clip-path="url(#clip-path)">
    <g id="Сгруппировать_78" data-name="Сгруппировать 78" transform="translate(0.053 -0.022)" clip-path="url(#clip-path-2)">
      <path id="Контур_1" data-name="Контур 1" d="M5.091,24.318l3.368-.484L3.856,1.356.488,1.84Z" transform="translate(-0.488 -0.093)" fill="#fff"/>
      <path id="Контур_2" data-name="Контур 2" d="M9.182.57,6.713,13.388l.337,1.642L9.856.486ZM10.529.381,7.364,16.671,7.7,18.313,11.2.3ZM11.854.107,8.037,19.954,8.374,21.6,12.528.107Z" transform="translate(0.023 -0.107)" fill="#fff"/>
    </g>
  </g>
  <g id="Сгруппировать_81" data-name="Сгруппировать 81" transform="translate(14.303 0)" clip-path="url(#clip-path-3)">
    <g id="Сгруппировать_80" data-name="Сгруппировать 80" transform="translate(0.132 -0.022)" clip-path="url(#clip-path-4)">
      <path id="Контур_3" data-name="Контур 3" d="M15.36.107l-.655.085v23.27l.655-.106ZM14.05.3,13.4.382v23.27l.655-.106Zm-1.31.191-.655.085V23.822l.655-.085Z" transform="translate(-12.086 -0.107)" fill="#fff"/>
    </g>
  </g>
  <g id="Сгруппировать_83" data-name="Сгруппировать 83" transform="translate(18.115)" clip-path="url(#clip-path-5)">
    <g id="Сгруппировать_82" data-name="Сгруппировать 82" transform="translate(-0.033 -0.022)" clip-path="url(#clip-path-6)">
      <path id="Контур_4" data-name="Контур 4" d="M16.456,23.335h.671V15.611h-.671ZM15.114,11.4h.671V4.439h-.671Zm0,12.122h.671V15.776h-.671ZM16.456,11.13l.671-.1V4.191h-.671ZM17.8,4.191v6.836h.671V4.191Zm0,18.979h.671V15.425H17.8Z" transform="translate(-15.114 -0.061)" fill="#fff"/>
      <path id="Контур_5" data-name="Контур 5" d="M22.044,3.349a2.2,2.2,0,0,1,.572.751A2.044,2.044,0,0,1,22.8,5v1.57l3.13-.434a15.3,15.3,0,0,0-.313-3.18,3.789,3.789,0,0,0-.734-1.383A4.142,4.142,0,0,0,23.631.562,6.012,6.012,0,0,0,20.144.21l-5.03.681V3.8l5.1-.7A2.611,2.611,0,0,1,22.044,3.349Z" transform="translate(-15.114 -0.107)" fill="#fff"/>
      <path id="Контур_6" data-name="Контур 6" d="M23.612,13.6a7.89,7.89,0,0,1-3.085,1.342l2.615,7.311,3.532-.475Z" transform="translate(-14.67 0.046)" fill="#fff"/>
      <path id="Контур_7" data-name="Контур 7" d="M22.827,7.279v.186a5.134,5.134,0,0,1-.425,2.747,2.832,2.832,0,0,1-.957.874,3.1,3.1,0,0,1-1.279.386l-5.052.682v2.912l5.052-.7a6.763,6.763,0,0,0,2.509-.762,6.249,6.249,0,0,0,1.962-1.634A7.919,7.919,0,0,0,25.911,6.99V6.845Z" transform="translate(-15.114 -0.03)" fill="#fff"/>
    </g>
  </g>
  <g id="Сгруппировать_85" data-name="Сгруппировать 85" transform="translate(31.008)" clip-path="url(#clip-path-7)">
    <g id="Сгруппировать_84" data-name="Сгруппировать 84" transform="translate(0.112 -0.022)" clip-path="url(#clip-path-8)">
      <path id="Контур_8" data-name="Контур 8" d="M34.14.107,31.055.535l-4.6,22.012,3.106-.428Z" transform="translate(-26.459 -0.107)" fill="#fff"/>
      <path id="Контур_9" data-name="Контур 9" d="M30.936,17.351l6.5-.915-.6-2.647-5.321.74Z" transform="translate(-26.092 0.048)" fill="#fff"/>
      <path id="Контур_10" data-name="Контур 10" d="M37.455,17.291l-.621.1.787,3.523h.621ZM35.385,13.4,33.439,4.874l-.311,1.5L34.7,13.457Zm1.242-.175L34.06,1.9l-.31,1.5,2.07,9.887ZM32.486,9.331l.973,4.379h.621L32.818,7.872ZM35.592,17.6l.725,3.484h.621l-.621-3.62Zm-1.222.175.766,3.523.621-.1-.766-3.6Z" transform="translate(-25.964 -0.087)" fill="#fff"/>
    </g>
  </g>
  <g id="Сгруппировать_87" data-name="Сгруппировать 87" transform="translate(45.059 0)" clip-path="url(#clip-path-9)">
    <g id="Сгруппировать_86" data-name="Сгруппировать 86" transform="translate(-0.544 -0.022)" clip-path="url(#clip-path-10)">
      <path id="Контур_11" data-name="Контур 11" d="M47.88,19.512l-9.822,1.327v3.018L47.88,22.53Z" transform="translate(-38.059 0.114)" fill="#fff"/>
      <path id="Контур_12" data-name="Контур 12" d="M38.059,20.246h.7V.492l-.7.086Zm1.4-.193h.7V.3l-.7.086ZM40.865.107V19.8l.7-.107V.107Z" transform="translate(-38.059 -0.107)" fill="#fff"/>
    </g>
  </g>
  <g id="Сгруппировать_89" data-name="Сгруппировать 89" transform="translate(55.599)" clip-path="url(#clip-path-11)">
    <g id="Сгруппировать_88" data-name="Сгруппировать 88" transform="translate(0.193 -0.022)" clip-path="url(#clip-path-12)">
      <path id="Контур_13" data-name="Контур 13" d="M52.806,20.406a2.192,2.192,0,0,1-1.159-.335c-.758-.523-.668-1.528-.668-2.386V6.928A3.544,3.544,0,0,1,51,5.431a3.659,3.659,0,0,1,.644-1.37,2.684,2.684,0,0,1,1.159-.67V.231a7.432,7.432,0,0,0-1.582.544,6.435,6.435,0,0,0-3.209,3.348,6.624,6.624,0,0,0-.379,2.26v12.2a6.858,6.858,0,0,0,.223,2.093,4.167,4.167,0,0,0,1.269,1.854,4.57,4.57,0,0,0,2.1.992,6.634,6.634,0,0,0,1.582.1Z" transform="translate(-47.636 -0.106)" fill="#fff"/>
      <path id="Контур_14" data-name="Контур 14" d="M56.651,19.507a4.808,4.808,0,0,0,.379-2.093V5.9a5.925,5.925,0,0,0-.379-2.742,3.027,3.027,0,0,0-.9-1.084,3.279,3.279,0,0,0-1.325-.59,5.234,5.234,0,0,0-1.226-.1v.628a3.338,3.338,0,0,1,2.028.544,3.284,3.284,0,0,1,.985,1.368,3.1,3.1,0,0,1,.152,1.645V16.556a1.974,1.974,0,0,0,0,.356,4.158,4.158,0,0,1-.171,1.877,4.353,4.353,0,0,1-.988,1.639,4.306,4.306,0,0,1-2.028,1.088v.628a5.268,5.268,0,0,0,3.476-2.637Zm-.936-2.469a2.127,2.127,0,0,1,0-.377V5.653a2.7,2.7,0,0,0-.1-1.392,2.849,2.849,0,0,0-.789-1.182,2.965,2.965,0,0,0-1.6-.439v.628a1.977,1.977,0,0,1,1.159.356c.78.5.668,1.528.668,2.365V16.849a3.524,3.524,0,0,1-.018,1.509,3.638,3.638,0,0,1-.65,1.38,2.736,2.736,0,0,1-1.159.649v.628a3.533,3.533,0,0,0,1.6-.879,3.716,3.716,0,0,0,.812-1.456A3.567,3.567,0,0,0,55.715,17.038ZM57.943,2.388A4.12,4.12,0,0,0,56.637.953,4.455,4.455,0,0,0,54.779.233,5.707,5.707,0,0,0,53.2.107V.735a5.857,5.857,0,0,1,1.359,0,3.954,3.954,0,0,1,1.607.682A3.654,3.654,0,0,1,57.275,2.7,6.46,6.46,0,0,1,57.7,5.695V17.414a5.448,5.448,0,0,1-.446,2.281,5.7,5.7,0,0,1-2.7,2.637,5.462,5.462,0,0,1-1.359.46v.649a6.82,6.82,0,0,0,4.657-3.558,5.78,5.78,0,0,0,.468-2.574V6.155a7.9,7.9,0,0,0-.446-3.683Z" transform="translate(-47.181 -0.107)" fill="#fff"/>
    </g>
  </g>
  <g id="Сгруппировать_91" data-name="Сгруппировать 91" transform="translate(66.865)" clip-path="url(#clip-path-13)">
    <g id="Сгруппировать_90" data-name="Сгруппировать 90" transform="translate(-0.096 -0.022)" clip-path="url(#clip-path-14)">
      <path id="Контур_15" data-name="Контур 15" d="M61.217,4.143a5.54,5.54,0,0,0-.5,2.948V18.307a3.843,3.843,0,0,0,.548,2.521,2,2,0,0,0,.807.56,2.136,2.136,0,0,0,1,.124v-.662a1.36,1.36,0,0,1-.67-.069,1.274,1.274,0,0,1-.539-.379,3.835,3.835,0,0,1-.457-2.435V7.39a6.211,6.211,0,0,1,.411-3.012,1.763,1.763,0,0,1,.52-.58,1.91,1.91,0,0,1,.735-.317V2.84a2.693,2.693,0,0,0-1.088.449A2.481,2.481,0,0,0,61.217,4.143Zm-.73-1.132a3.962,3.962,0,0,0-.845,1.367,4.672,4.672,0,0,0-.3,1.6v13.2a4.687,4.687,0,0,0,.3,1.859,2.689,2.689,0,0,0,.894,1.136,2.957,2.957,0,0,0,1.388.551,6.273,6.273,0,0,0,1.1,0v-.62a2.817,2.817,0,0,1-1.345-.136,2.65,2.65,0,0,1-1.1-.74,3.762,3.762,0,0,1-.548-2.628V6.621a4.2,4.2,0,0,1,.5-2.649,3.566,3.566,0,0,1,1.062-1.127,3.852,3.852,0,0,1,1.471-.6V1.558a5.016,5.016,0,0,0-1.278.47A4.522,4.522,0,0,0,60.486,3.011Zm.8-2.136a6.767,6.767,0,0,0-1.758,1.367,5.428,5.428,0,0,0-1.141,1.795,5.439,5.439,0,0,0-.411,2.136v13.16a5.694,5.694,0,0,0,.388,2.329,3.814,3.814,0,0,0,1.284,1.606,4.193,4.193,0,0,0,1.98.766,8.091,8.091,0,0,0,1.438,0v-.641a8.206,8.206,0,0,1-1.255,0,3.61,3.61,0,0,1-1.68-.608A3.3,3.3,0,0,1,59,21.469a5.209,5.209,0,0,1-.342-2.136V6.023a4.6,4.6,0,0,1,.365-1.859,4.94,4.94,0,0,1,.982-1.56,5.791,5.791,0,0,1,1.529-1.154A6.7,6.7,0,0,1,63.065.917V.276a6.957,6.957,0,0,0-1.78.62Z" transform="translate(-57.975 -0.105)" fill="#fff"/>
      <path id="Контур_16" data-name="Контур 16" d="M69.03,10.056l-6.14.833V13.9l6.14-.833Z" transform="translate(-57.571 0.006)" fill="#fff"/>
      <path id="Контур_17" data-name="Контур 17" d="M68.463,2.521a4.187,4.187,0,0,0-1.293-1.5,4.557,4.557,0,0,0-1.88-.786A5.867,5.867,0,0,0,63.67.107v3.2a2.03,2.03,0,0,1,1.187.363,1.826,1.826,0,0,1,.559.72,1.709,1.709,0,0,1,.126.882V6.965l3.378-.449V4.829A4.82,4.82,0,0,0,68.463,2.521Z" transform="translate(-57.507 -0.107)" fill="#fff"/>
      <path id="Контур_18" data-name="Контур 18" d="M65.542,14.307v3.76a2.425,2.425,0,0,1-.685,1.816,2.8,2.8,0,0,1-1.187.662v3.226a6.809,6.809,0,0,0,4.282-2.886A5.98,5.98,0,0,0,68.92,17.6v-3.76Z" transform="translate(-57.507 0.049)" fill="#fff"/>
    </g>
  </g>
  <g id="Сгруппировать_93" data-name="Сгруппировать 93" transform="translate(80.191)" clip-path="url(#clip-path)">
    <g id="Сгруппировать_92" data-name="Сгруппировать 92" transform="translate(-0.132 -0.022)" clip-path="url(#clip-path-16)">
      <path id="Контур_19" data-name="Контур 19" d="M72.819,23.908h.674v-8.33h-.674Zm2.672-8.788v8.33l.674-.1v-8.33Zm-1.347,8.6.673-.1v-8.33h-.673Z" transform="translate(-68.217 0.062)" fill="#fff"/>
      <path id="Контур_20" data-name="Контур 20" d="M76.454,13,80.608.107,77.24.565,74.77,8.229Z" transform="translate(-68.057 -0.107)" fill="#fff"/>
      <path id="Контур_21" data-name="Контур 21" d="M73.146,14.837l3.368-.458L71.934,1.343,68.566,1.8Z" transform="translate(-68.566 -0.093)" fill="#fff"/>
    </g>
  </g>
</svg>
